<?xml version="1.0" encoding="UTF-8"?>
<svg version="1.1" xmlns="http://www.w3.org/2000/svg" width="500" height="500">
<path d="M0 0 C2.96327102 1.18607609 4.86835569 1.46930369 8.015625 1.20703125 C8.675625 -1.10296875 9.335625 -3.41296875 10.015625 -5.79296875 C11.005625 -5.79296875 11.995625 -5.79296875 13.015625 -5.79296875 C13.015625 8.39703125 13.015625 22.58703125 13.015625 37.20703125 C12.025625 37.53703125 11.035625 37.86703125 10.015625 38.20703125 C9.6134375 36.35078125 9.6134375 36.35078125 9.203125 34.45703125 C6.81869213 22.60885668 6.81869213 22.60885668 3.015625 11.20703125 C2.025625 10.87703125 1.035625 10.54703125 0.015625 10.20703125 C-0.70625 9.46453125 -1.428125 8.72203125 -2.171875 7.95703125 C-7.02244486 3.21425183 -12.05605462 -0.38542049 -18.984375 -0.79296875 C-19.809375 -0.84324219 -20.634375 -0.89351562 -21.484375 -0.9453125 C-27.47588622 -1.15335108 -33.85021974 -1.2709449 -38.984375 2.20703125 C-40.84648838 5.08051611 -41.47008855 7.84809789 -41.984375 11.20703125 C-42.108125 11.92246094 -42.231875 12.63789063 -42.359375 13.375 C-43.04633279 21.23207972 -39.01114731 28.44347884 -34.203125 34.421875 C-31.08092604 37.66047173 -27.88896313 39.95893506 -23.984375 42.20703125 C-23.984375 42.86703125 -23.984375 43.52703125 -23.984375 44.20703125 C-23.30632812 44.43390625 -22.62828125 44.66078125 -21.9296875 44.89453125 C-18.19785711 46.55752198 -15.13752501 48.79155229 -11.859375 51.20703125 C-10.62782564 52.10316904 -9.39606244 52.99901302 -8.1640625 53.89453125 C-7.11476563 54.65765625 -6.06546875 55.42078125 -4.984375 56.20703125 C-3.994375 56.86703125 -3.004375 57.52703125 -1.984375 58.20703125 C-1.32953125 57.42199219 -0.6746875 56.63695312 0 55.828125 C9.3069075 44.99707778 19.99919381 37.30777304 34.57421875 35.97265625 C45.89428013 35.4314581 56.44310831 38.90328309 65.05859375 46.3359375 C65.70441406 46.95339844 66.35023438 47.57085937 67.015625 48.20703125 C67.65113281 48.81417969 68.28664063 49.42132813 68.94140625 50.046875 C77.01981214 58.50584819 80.19932228 68.41138725 80.265625 79.83203125 C80.2965625 81.12947266 80.2965625 81.12947266 80.328125 82.453125 C80.40231234 94.82386472 75.38212282 103.29483362 67.1015625 112.28515625 C59.03821122 119.91713483 48.03023139 124.17902334 36.953125 124.39453125 C32.9128813 124.20213869 29.01752616 123.77873142 25.015625 123.20703125 C24.685625 122.21703125 24.355625 121.22703125 24.015625 120.20703125 C24.345625 119.54703125 24.675625 118.88703125 25.015625 118.20703125 C25.985 118.37203125 26.954375 118.53703125 27.953125 118.70703125 C40.22261779 120.37568227 51.21123653 118.31727016 61.5390625 111.21875 C69.39548441 104.83695618 74.01199961 96.07674153 76.015625 86.20703125 C77.1518539 74.66619198 74.58127185 64.84403521 67.890625 55.33203125 C60.84670099 46.96255481 51.1759239 42.3242984 40.390625 41.39453125 C28.68067008 40.74192598 19.1294615 43.73597092 10.015625 51.20703125 C5.10156867 56.03721318 5.10156867 56.03721318 3.015625 62.20703125 C4.67741803 63.59751113 6.33960677 64.98752113 8.00390625 66.375 C16.71164286 74.30495819 20.33820071 82.65606035 21.0078125 94.2578125 C21.03007827 102.66314136 18.19647394 109.56288909 13.015625 116.20703125 C12.025625 116.53703125 11.035625 116.86703125 10.015625 117.20703125 C10.015625 117.86703125 10.015625 118.52703125 10.015625 119.20703125 C-1.05546729 127.42106746 -16.83633755 127.14164383 -29.984375 126.20703125 C-33.49029895 125.52642299 -36.70735755 124.62229843 -39.984375 123.20703125 C-41.29868672 124.99736932 -42.6107703 126.78934328 -43.921875 128.58203125 C-45.01822266 130.07863281 -45.01822266 130.07863281 -46.13671875 131.60546875 C-47.9623319 134.03520234 -47.9623319 134.03520234 -48.984375 136.20703125 C-48.0253125 136.36171875 -48.0253125 136.36171875 -47.046875 136.51953125 C-46.36625 136.74640625 -45.685625 136.97328125 -44.984375 137.20703125 C-44.654375 138.19703125 -44.324375 139.18703125 -43.984375 140.20703125 C-45.634375 139.87703125 -47.284375 139.54703125 -48.984375 139.20703125 C-48.324375 139.53703125 -47.664375 139.86703125 -46.984375 140.20703125 C-46.984375 140.86703125 -46.984375 141.52703125 -46.984375 142.20703125 C-45.664375 142.86703125 -44.344375 143.52703125 -42.984375 144.20703125 C-43.734375 146.14453125 -43.734375 146.14453125 -44.984375 148.20703125 C-47.93757318 149.44546919 -48.85876028 149.24890282 -51.984375 148.20703125 C-51.984375 147.21703125 -51.984375 146.22703125 -51.984375 145.20703125 C-50.004375 145.53703125 -48.024375 145.86703125 -45.984375 146.20703125 C-45.984375 145.54703125 -45.984375 144.88703125 -45.984375 144.20703125 C-46.768125 144.26890625 -47.551875 144.33078125 -48.359375 144.39453125 C-49.225625 144.33265625 -50.091875 144.27078125 -50.984375 144.20703125 C-51.644375 143.21703125 -52.304375 142.22703125 -52.984375 141.20703125 C-59.26528454 148.15214845 -59.26528454 148.15214845 -65.421875 155.20703125 C-72.8871042 163.73627013 -81.04037001 171.25618957 -89.984375 178.20703125 C-90.84675781 178.88636719 -91.70914063 179.56570313 -92.59765625 180.265625 C-113.16388764 195.89596086 -136.36938512 202.82441361 -162.18359375 199.78125 C-176.53561096 197.4535099 -189.48908973 192.13540816 -200.984375 183.20703125 C-202.10209557 182.46675444 -203.22614687 181.73584335 -204.359375 181.01953125 C-206.89639639 179.26777839 -208.9662286 177.53566171 -210.984375 175.20703125 C-210.984375 174.54703125 -210.984375 173.88703125 -210.984375 173.20703125 C-211.644375 173.20703125 -212.304375 173.20703125 -212.984375 173.20703125 C-229.43139279 155.35376287 -237.5889635 131.85417571 -236.96386719 107.72216797 C-235.94037951 86.75980119 -227.31907788 67.50103547 -212.984375 52.20703125 C-212.38238281 51.54960937 -211.78039062 50.8921875 -211.16015625 50.21484375 C-209.83016903 48.81723006 -208.41667241 47.49959233 -206.984375 46.20703125 C-206.324375 46.20703125 -205.664375 46.20703125 -204.984375 46.20703125 C-205.314375 45.21703125 -205.644375 44.22703125 -205.984375 43.20703125 C-206.04550191 40.65539327 -206.05228741 38.13212255 -206.01171875 35.58203125 C-205.9990755 34.05599182 -205.98671432 32.52995004 -205.97460938 31.00390625 C-205.94976191 28.60083664 -205.92174824 26.19788951 -205.88842773 23.79492188 C-205.8582513 21.4739503 -205.84046158 19.15313622 -205.82421875 16.83203125 C-205.81075912 16.11321777 -205.7972995 15.3944043 -205.78343201 14.65380859 C-205.76468487 10.93187425 -205.86148401 9.39136773 -207.984375 6.20703125 C-210.62484752 5.1895057 -210.62484752 5.1895057 -213.609375 4.51953125 C-214.61226562 4.26816406 -215.61515625 4.01679688 -216.6484375 3.7578125 C-217.41929687 3.57605469 -218.19015625 3.39429688 -218.984375 3.20703125 C-218.654375 2.21703125 -218.324375 1.22703125 -217.984375 0.20703125 C-207.754375 0.20703125 -197.524375 0.20703125 -186.984375 0.20703125 C-184.509375 6.54921875 -184.509375 6.54921875 -181.984375 13.01953125 C-181.20126953 15.01463745 -181.20126953 15.01463745 -180.40234375 17.05004883 C-179.99628906 18.09829834 -179.59023437 19.14654785 -179.171875 20.2265625 C-178.75292969 21.30010986 -178.33398438 22.37365723 -177.90234375 23.47973633 C-176.984375 26.20703125 -176.984375 26.20703125 -176.984375 29.20703125 C-176.41589844 29.00207031 -175.84742188 28.79710937 -175.26171875 28.5859375 C-166.04343406 25.36954101 -156.75072883 24.23732236 -146.984375 25.20703125 C-144.18062958 26.58579617 -142.45367005 27.56708345 -140.609375 30.08203125 C-139.76838727 32.94138953 -139.93550346 34.41004047 -140.984375 37.20703125 C-143.62731447 40.00099583 -145.23586833 41.08482608 -149.046875 41.70703125 C-152.69743049 41.0856601 -153.81667123 40.17758827 -155.984375 37.20703125 C-157.32261029 32.88350184 -157.32261029 32.88350184 -155.984375 30.20703125 C-162.33656542 30.75584182 -168.66311138 31.37214738 -174.984375 32.20703125 C-174.69304687 32.82707031 -174.40171875 33.44710937 -174.1015625 34.0859375 C-170.43250495 42.01248635 -167.17241764 50.07895857 -163.984375 58.20703125 C-163.62230957 59.12790527 -163.26024414 60.0487793 -162.88720703 60.99755859 C-155.24333616 80.44404679 -155.24333616 80.44404679 -151.984375 89.20703125 C-148.99604564 83.73152092 -147.09740508 77.98145463 -145.109375 72.08203125 C-142.6647192 64.93109219 -140.13887419 57.88913807 -137.12890625 50.953125 C-135.79082019 47.74263183 -134.63541344 44.48909442 -133.484375 41.20703125 C-131.98478416 36.93180023 -130.40238113 32.74227423 -128.609375 28.58203125 C-125.8517465 22.13881037 -123.6158998 15.52767935 -121.39501953 8.88427734 C-120.96938721 7.63251709 -120.96938721 7.63251709 -120.53515625 6.35546875 C-120.15870972 5.22890869 -120.15870972 5.22890869 -119.7746582 4.07958984 C-118.984375 2.20703125 -118.984375 2.20703125 -116.984375 0.20703125 C-114.12695312 -0.05175781 -114.12695312 -0.05175781 -110.515625 -0.05859375 C-109.22269531 -0.06117188 -107.92976562 -0.06375 -106.59765625 -0.06640625 C-105.58566162 -0.06012207 -105.58566162 -0.06012207 -104.55322266 -0.05371094 C-102.49221343 -0.04300945 -100.43207581 -0.05360818 -98.37109375 -0.06640625 C-97.07816406 -0.06382812 -95.78523437 -0.06125 -94.453125 -0.05859375 C-93.26138672 -0.05633789 -92.06964844 -0.05408203 -90.84179688 -0.05175781 C-87.984375 0.20703125 -87.984375 0.20703125 -85.984375 2.20703125 C-87.67708333 2.92317708 -89.36979167 3.63932292 -91.0625 4.35546875 C-93.07033666 5.24511995 -95.02324554 6.21933514 -96.984375 7.20703125 C-97.77875206 18.72255445 -98.13461979 30.16966514 -98.1171875 41.7109375 C-98.11786434 43.32982905 -98.1188375 44.94872049 -98.12008667 46.56761169 C-98.12154538 49.92976873 -98.11946853 53.29189887 -98.11474609 56.65405273 C-98.10904531 60.91518321 -98.11234182 65.1762507 -98.11831856 69.43737888 C-98.12197012 72.77069047 -98.12076481 76.10398766 -98.11819077 79.43729973 C-98.11753437 81.00662176 -98.11830354 82.5759452 -98.12067032 84.14526558 C-98.13291592 94.53833675 -97.7523756 104.84186958 -96.984375 115.20703125 C-95.97769775 115.30769897 -95.97769775 115.30769897 -94.95068359 115.41040039 C-94.17805176 115.48766357 -93.40541992 115.56492676 -92.609375 115.64453125 C-91.39121094 115.76634766 -91.39121094 115.76634766 -90.1484375 115.890625 C-87.984375 116.20703125 -87.984375 116.20703125 -85.984375 117.20703125 C-85.984375 117.86703125 -85.984375 118.52703125 -85.984375 119.20703125 C-89.35109378 120.89039064 -93.157341 120.34857414 -96.859375 120.33984375 C-98.17977783 120.34127884 -98.17977783 120.34127884 -99.52685547 120.34274292 C-101.38964916 120.34342401 -103.25244523 120.34157468 -105.11523438 120.33740234 C-107.97271028 120.33205309 -110.830029 120.33734974 -113.6875 120.34375 C-115.49479201 120.34308921 -117.30208393 120.34180802 -119.109375 120.33984375 C-119.96772949 120.34186798 -120.82608398 120.34389221 -121.71044922 120.34597778 C-127.75445755 120.32198997 -127.75445755 120.32198997 -129.984375 119.20703125 C-129.984375 118.54703125 -129.984375 117.88703125 -129.984375 117.20703125 C-126.831007 116.50628281 -124.25712526 116.20703125 -120.984375 116.20703125 C-120.984375 115.54703125 -120.984375 114.88703125 -120.984375 114.20703125 C-120.324375 114.20703125 -119.664375 114.20703125 -118.984375 114.20703125 C-118.654375 81.86703125 -118.324375 49.52703125 -117.984375 16.20703125 C-120.54565254 18.76830879 -120.92664961 20.92123462 -121.921875 24.39453125 C-123.1028549 28.50166379 -124.46927506 32.35814398 -126.16947937 36.27592468 C-127.54774951 39.54209329 -128.75875781 42.86809717 -129.98046875 46.1953125 C-130.39269432 47.31017281 -130.39269432 47.31017281 -130.81324768 48.44755554 C-131.6844987 50.80425408 -132.55341627 53.16180244 -133.421875 55.51953125 C-139.82968103 72.90445302 -139.82968103 72.90445302 -142.97631836 80.65161133 C-145.55257412 87.18241033 -147.88480223 93.81120603 -150.27807617 100.41088867 C-150.99231575 102.37870137 -151.70896092 104.34562622 -152.42578125 106.3125 C-152.84545166 107.46903076 -153.26512207 108.62556152 -153.69750977 109.81713867 C-155.03136189 113.33080528 -156.48069946 116.76328826 -157.984375 120.20703125 C-159.304375 120.20703125 -160.624375 120.20703125 -161.984375 120.20703125 C-162.36134521 119.23693115 -162.73831543 118.26683105 -163.12670898 117.26733398 C-172.0041493 94.41683022 -172.0041493 94.41683022 -180.921875 71.58203125 C-181.27169434 70.68774414 -181.62151367 69.79345703 -181.98193359 68.87207031 C-183.67692862 64.53978889 -185.37740375 60.20977356 -187.0859375 55.8828125 C-187.73962397 54.22006806 -188.39327181 52.55730843 -189.046875 50.89453125 C-189.34650146 50.14026855 -189.64612793 49.38600586 -189.95483398 48.60888672 C-191.984375 43.4331618 -191.984375 43.4331618 -191.984375 41.20703125 C-192.933125 41.86703125 -193.881875 42.52703125 -194.859375 43.20703125 C-197.984375 45.20703125 -197.984375 45.20703125 -199.984375 45.20703125 C-200.72757479 49.19162689 -201.1104744 52.95824603 -201.11376953 57.00952148 C-201.11849777 58.68672523 -201.11849777 58.68672523 -201.12332153 60.39781189 C-201.1212973 61.59169022 -201.11927307 62.78556854 -201.1171875 64.015625 C-201.11814423 65.25570816 -201.11910095 66.49579132 -201.12008667 67.77345276 C-201.12093962 71.06033089 -201.11692893 74.34716139 -201.11132812 77.6340332 C-201.10937823 79.64121006 -201.11132005 81.64834313 -201.11474609 83.65551758 C-201.1209378 87.52557387 -201.12017095 91.39556598 -201.1171875 95.265625 C-201.11921173 96.4574791 -201.12123596 97.64933319 -201.12332153 98.87730408 C-201.10772408 104.42563812 -200.98255171 109.74382277 -199.984375 115.20703125 C-197.014375 115.53703125 -194.044375 115.86703125 -190.984375 116.20703125 C-190.984375 117.52703125 -190.984375 118.84703125 -190.984375 120.20703125 C-199.234375 120.20703125 -207.484375 120.20703125 -215.984375 120.20703125 C-215.984375 118.88703125 -215.984375 117.56703125 -215.984375 116.20703125 C-211.529375 115.21703125 -211.529375 115.21703125 -206.984375 114.20703125 C-206.654375 94.40703125 -206.324375 74.60703125 -205.984375 54.20703125 C-208.15892604 53.98398622 -208.15892604 53.98398622 -209.8671875 55.90234375 C-227.45404698 74.95988138 -231.80941185 96.28649824 -231.10742188 121.54101562 C-230.29684851 139.10343856 -222.1466863 156.17211888 -210.359375 169.08203125 C-208.68358865 170.58141903 -206.9468513 172.01399413 -205.171875 173.39453125 C-204.45 173.99265625 -203.728125 174.59078125 -202.984375 175.20703125 C-202.984375 175.86703125 -202.984375 176.52703125 -202.984375 177.20703125 C-202.3965625 177.490625 -201.80875 177.77421875 -201.203125 178.06640625 C-199.19720457 179.09761887 -197.3664181 180.218845 -195.484375 181.45703125 C-183.49015171 188.9589532 -170.30221316 194.68795555 -155.984375 195.20703125 C-154.71851563 195.25859375 -153.45265625 195.31015625 -152.1484375 195.36328125 C-134.27363233 195.85776031 -114.88614092 192.08373678 -100.984375 180.20703125 C-98.99041466 178.71973296 -96.98987654 177.24123014 -94.984375 175.76953125 C-90.62333441 172.51255157 -86.49219432 169.12886314 -82.5078125 165.421875 C-80.984375 164.20703125 -80.984375 164.20703125 -78.984375 164.20703125 C-78.654375 163.21703125 -78.324375 162.22703125 -77.984375 161.20703125 C-76.00177074 159.51970848 -74.0011408 157.85337068 -71.984375 156.20703125 C-71.324375 155.21703125 -70.664375 154.22703125 -69.984375 153.20703125 C-69.324375 153.20703125 -68.664375 153.20703125 -67.984375 153.20703125 C-67.72914063 152.63082031 -67.47390625 152.05460938 -67.2109375 151.4609375 C-65.85638182 148.97183359 -64.29706864 147.20960316 -62.359375 145.14453125 C-55.39509453 137.46111312 -49.63781377 128.87992028 -43.984375 120.20703125 C-47.49194247 119.40439869 -50.70169252 119.09659548 -54.296875 119.14453125 C-55.62138672 119.15806641 -55.62138672 119.15806641 -56.97265625 119.171875 C-57.63652344 119.18347656 -58.30039062 119.19507813 -58.984375 119.20703125 C-59.644375 120.85703125 -60.304375 122.50703125 -60.984375 124.20703125 C-61.974375 124.20703125 -62.964375 124.20703125 -63.984375 124.20703125 C-64.20290991 116.69610499 -64.39795076 109.18483612 -64.57641602 101.67285156 C-64.63996986 99.11574397 -64.70896592 96.55876576 -64.78344727 94.00195312 C-64.8893764 90.33353464 -64.97592924 86.66510084 -65.05859375 82.99609375 C-65.1146302 81.27261215 -65.1146302 81.27261215 -65.17179871 79.51431274 C-65.20216972 77.92288956 -65.20216972 77.92288956 -65.2331543 76.29931641 C-65.25758102 75.36221832 -65.28200775 74.42512024 -65.30717468 73.45962524 C-65.14738884 72.34459122 -65.14738884 72.34459122 -64.984375 71.20703125 C-63.994375 70.54703125 -63.004375 69.88703125 -61.984375 69.20703125 C-61.324375 69.53703125 -60.664375 69.86703125 -59.984375 70.20703125 C-59.67578125 72.98046875 -59.67578125 72.98046875 -59.546875 76.58203125 C-58.7263668 90.51652388 -54.7844806 102.15680694 -44.984375 112.20703125 C-44.45972656 112.77679688 -43.93507813 113.3465625 -43.39453125 113.93359375 C-42.05366019 115.43043565 -42.05366019 115.43043565 -39.984375 115.20703125 C-38.40454338 112.73117573 -36.92523386 110.26190877 -35.484375 107.70703125 C-34.04351614 105.15215373 -32.56420662 102.68288677 -30.984375 100.20703125 C-30.324375 100.20703125 -29.664375 100.20703125 -28.984375 100.20703125 C-28.86505615 99.62058838 -28.7457373 99.03414551 -28.62280273 98.42993164 C-27.96114834 96.12615985 -27.11375773 94.61307547 -25.76953125 92.640625 C-25.33060547 91.99029297 -24.89167969 91.33996094 -24.43945312 90.66992188 C-23.97990234 90.00154297 -23.52035156 89.33316406 -23.046875 88.64453125 C-22.59119141 87.97228516 -22.13550781 87.30003906 -21.66601562 86.60742188 C-20.81781563 85.35685468 -19.96724919 84.10788679 -19.11352539 82.86108398 C-16.58320153 79.38192744 -16.58320153 79.38192744 -15.984375 75.20703125 C-17.96558368 73.50104024 -17.96558368 73.50104024 -20.578125 71.921875 C-21.52558594 71.30892578 -22.47304688 70.69597656 -23.44921875 70.06445312 C-24.45082031 69.43087891 -25.45242188 68.79730469 -26.484375 68.14453125 C-28.45710399 66.88904285 -30.42608516 65.62763916 -32.390625 64.359375 C-33.27041016 63.80241943 -34.15019531 63.24546387 -35.05664062 62.67163086 C-35.69279297 62.18831299 -36.32894531 61.70499512 -36.984375 61.20703125 C-36.984375 60.54703125 -36.984375 59.88703125 -36.984375 59.20703125 C-37.665 58.98015625 -38.345625 58.75328125 -39.046875 58.51953125 C-43.90801957 56.34753049 -48.449093 53.22439716 -51.984375 49.20703125 C-51.984375 48.54703125 -51.984375 47.88703125 -51.984375 47.20703125 C-52.57992187 46.975 -53.17546875 46.74296875 -53.7890625 46.50390625 C-56.54631215 44.87506838 -57.51216087 43.21661587 -59.109375 40.45703125 C-59.60695313 39.6165625 -60.10453125 38.77609375 -60.6171875 37.91015625 C-64.48367406 30.26555996 -65.67000814 21.78075215 -63.15625 13.46875 C-61.69329583 10.13343285 -60.0064175 7.240095 -57.984375 4.20703125 C-57.324375 4.20703125 -56.664375 4.20703125 -55.984375 4.20703125 C-55.984375 3.54703125 -55.984375 2.88703125 -55.984375 2.20703125 C-39.50583796 -13.05087342 -17.96000874 -8.91493188 0 0 Z M-201.984375 17.20703125 C-200.984375 19.20703125 -200.984375 19.20703125 -200.984375 19.20703125 Z M-200.984375 19.20703125 C-202.2107507 21.65978266 -202.09852814 23.25760935 -202.08203125 25.99609375 C-202.07880859 26.93710938 -202.07558594 27.878125 -202.07226562 28.84765625 C-202.06388672 29.8325 -202.05550781 30.81734375 -202.046875 31.83203125 C-202.04236328 32.82460937 -202.03785156 33.8171875 -202.03320312 34.83984375 C-202.02139645 37.29563285 -202.004929 39.75130229 -201.984375 42.20703125 C-199.344375 40.88703125 -196.704375 39.56703125 -193.984375 38.20703125 C-194.59313255 33.60286499 -195.83160456 29.64219801 -197.546875 25.33203125 C-198.00191406 24.17960937 -198.45695312 23.0271875 -198.92578125 21.83984375 C-199.27511719 20.97101563 -199.62445313 20.1021875 -199.984375 19.20703125 C-200.314375 19.20703125 -200.644375 19.20703125 -200.984375 19.20703125 Z M-11.984375 79.20703125 C-16.6834629 85.67994703 -20.99176363 92.34722237 -25.19824219 99.14453125 C-28.99102684 105.25948827 -32.94593301 111.25089334 -36.984375 117.20703125 C-32.70905522 121.48235103 -26.27438643 120.56387209 -20.5637207 120.59423828 C-14.16452322 120.47260911 -9.10562723 119.25959242 -3.984375 115.20703125 C0.31527688 110.0684229 1.34118027 105.98195249 1.23046875 99.3515625 C0.5585901 92.64499202 -2.81645989 87.33677292 -6.984375 82.20703125 C-7.644375 82.20703125 -8.304375 82.20703125 -8.984375 82.20703125 C-8.984375 81.54703125 -8.984375 80.88703125 -8.984375 80.20703125 C-9.974375 79.87703125 -10.964375 79.54703125 -11.984375 79.20703125 Z " fill="#060404" transform="translate(332.984375,164.79296875)"/>
<path d="M0 0 C1.7797522 0.02018188 1.7797522 0.02018188 3.59545898 0.04077148 C5.53001953 0.05140625 5.53001953 0.05140625 7.50366211 0.06225586 C8.17421631 0.07877197 8.84477051 0.09528809 9.53564453 0.11230469 C11.58810101 0.16178203 13.63816277 0.17378771 15.69116211 0.17944336 C25.73473837 0.30505087 25.73473837 0.30505087 28.02905273 2.59936523 C26.3363444 3.31551107 24.64363607 4.0316569 22.95092773 4.74780273 C20.94309108 5.63745394 18.99018219 6.61166912 17.02905273 7.59936523 C16.23467567 19.11488844 15.87880795 30.56199912 15.89624023 42.10327148 C15.89556339 43.72216303 15.89459024 45.34105447 15.89334106 46.95994568 C15.89188235 50.32210272 15.8939592 53.68423285 15.89868164 57.04638672 C15.90438242 61.30751719 15.90108591 65.56858468 15.89510918 69.82971287 C15.89145762 73.16302445 15.89266292 76.49632164 15.89523697 79.82963371 C15.89589336 81.39895574 15.89512419 82.96827918 15.89275742 84.53759956 C15.88051181 94.93067074 16.26105213 105.23420356 17.02905273 115.59936523 C18.03572998 115.70003296 18.03572998 115.70003296 19.06274414 115.80273438 C19.83537598 115.87999756 20.60800781 115.95726074 21.40405273 116.03686523 C22.6222168 116.15868164 22.6222168 116.15868164 23.86499023 116.28295898 C26.02905273 116.59936523 26.02905273 116.59936523 28.02905273 117.59936523 C28.02905273 118.25936523 28.02905273 118.91936523 28.02905273 119.59936523 C24.66233395 121.28272463 20.85608673 120.74090813 17.15405273 120.73217773 C15.8336499 120.73361282 15.8336499 120.73361282 14.48657227 120.7350769 C12.62377857 120.73575799 10.76098251 120.73390867 8.89819336 120.72973633 C6.04071745 120.72438707 3.18339873 120.72968372 0.32592773 120.73608398 C-1.48136428 120.73542319 -3.2886562 120.734142 -5.09594727 120.73217773 C-6.383479 120.73521408 -6.383479 120.73521408 -7.69702148 120.73831177 C-13.74102982 120.71432396 -13.74102982 120.71432396 -15.97094727 119.59936523 C-15.97094727 118.93936523 -15.97094727 118.27936523 -15.97094727 117.59936523 C-12.81757927 116.89861679 -10.24369753 116.59936523 -6.97094727 116.59936523 C-6.97094727 115.93936523 -6.97094727 115.27936523 -6.97094727 114.59936523 C-6.31094727 114.59936523 -5.65094727 114.59936523 -4.97094727 114.59936523 C-4.64094727 80.60936523 -4.31094727 46.61936523 -3.97094727 11.59936523 C-4.30094727 12.25936523 -4.63094727 12.91936523 -4.97094727 13.59936523 C-5.63094727 13.59936523 -6.29094727 13.59936523 -6.97094727 13.59936523 C-5.91966598 1.19424603 -5.91966598 1.19424603 0 0 Z " fill="#030202" transform="translate(218.970947265625,164.400634765625)"/>
<path d="M0 0 C1.38473563 1.1946235 2.74062464 2.42367106 4.0625 3.6875 C4.69800781 4.29464844 5.33351563 4.90179688 5.98828125 5.52734375 C14.06668714 13.98631694 17.24619728 23.891856 17.3125 35.3125 C17.333125 36.17746094 17.35375 37.04242188 17.375 37.93359375 C17.44918734 50.30433347 12.42899782 58.77530237 4.1484375 67.765625 C-3.91491378 75.39760358 -14.92289361 79.65949209 -26 79.875 C-30.0402437 79.68260744 -33.93559884 79.25920017 -37.9375 78.6875 C-38.2675 77.6975 -38.5975 76.7075 -38.9375 75.6875 C-38.6075 75.0275 -38.2775 74.3675 -37.9375 73.6875 C-36.968125 73.8525 -35.99875 74.0175 -35 74.1875 C-22.73050721 75.85615102 -11.74188847 73.79773891 -1.4140625 66.69921875 C6.44235941 60.31742493 11.05887461 51.55721028 13.0625 41.6875 C14.1987289 30.14666073 11.62814685 20.32450396 4.9375 10.8125 C-2.10642401 2.44302356 -11.7772011 -2.19523285 -22.5625 -3.125 C-34.27245492 -3.77760527 -43.8236635 -0.78356033 -52.9375 6.6875 C-57.85155633 11.51768193 -57.85155633 11.51768193 -59.9375 17.6875 C-58.22809971 19.28978383 -56.40448472 20.70044742 -54.56640625 22.15234375 C-52.9375 23.6875 -52.9375 23.6875 -51.9375 26.6875 C-52.5975 26.6875 -53.2575 26.6875 -53.9375 26.6875 C-54.741875 25.718125 -55.54625 24.74875 -56.375 23.75 C-58.64434377 20.49374673 -58.64434377 20.49374673 -61.9375 19.6875 C-62.5975 18.6975 -63.2575 17.7075 -63.9375 16.6875 C-64.5975 17.0175 -65.2575 17.3475 -65.9375 17.6875 C-65.42522395 13.47880067 -62.88435956 10.87875186 -60.125 7.875 C-59.64015137 7.34600098 -59.15530273 6.81700195 -58.65576172 6.27197266 C-43.01196777 -10.08222064 -18.63119529 -13.81496793 0 0 Z " fill="#100908" transform="translate(395.9375,209.3125)"/>
<path d="M0 0 C0.33 0 0.66 0 1 0 C1.29296875 5.95703125 1.29296875 5.95703125 1 8 C0.54238281 8.45246094 0.08476562 8.90492188 -0.38671875 9.37109375 C-2.69651286 11.70325875 -3.12400005 14.11100019 -4 17.25 C-5.15304374 21.34330526 -6.49096834 25.16934564 -8.18386841 29.06765747 C-9.56338361 32.33391493 -10.77419087 35.66054319 -11.99609375 38.98828125 C-12.2709108 39.73152145 -12.54572784 40.47476166 -12.82887268 41.24052429 C-13.7001237 43.59722283 -14.56904127 45.95477119 -15.4375 48.3125 C-22.06932998 66.30521777 -22.06932998 66.30521777 -25.19750977 74.00756836 C-26.27833418 76.69105119 -27.27263923 79.40235213 -28.25 82.125 C-28.58515625 83.05570312 -28.9203125 83.98640625 -29.265625 84.9453125 C-29.50796875 85.62335938 -29.7503125 86.30140625 -30 87 C-30.33 86.01 -30.66 85.02 -31 84 C-30.505 83.01 -30.505 83.01 -30 82 C-30.66 82 -31.32 82 -32 82 C-32.495 82.99 -32.495 82.99 -33 84 C-32.49859355 79.23663872 -30.98865998 75.33581727 -29.16796875 70.96484375 C-27.82687785 67.56053608 -26.68800231 64.10454588 -25.5625 60.625 C-23.72009165 54.96617436 -21.59840146 49.49471589 -19.25 44.02734375 C-17.88416582 40.71946409 -16.6836785 37.37718273 -15.5 34 C-13.58601034 28.54602946 -11.464731 23.22779314 -9.203125 17.91015625 C-7.30999735 13.33100009 -5.64642759 8.6725431 -4 4 C-3.67 4.66 -3.34 5.32 -3 6 C-2.34 6 -1.68 6 -1 6 C-0.67 4.02 -0.34 2.04 0 0 Z " fill="#1A1313" transform="translate(215,172)"/>
<path d="M0 0 C0.99 0 1.98 0 3 0 C3 0.66 3 1.32 3 2 C3.66 2 4.32 2 5 2 C6.40428466 6.21285399 6.22437686 10.21141495 6.25 14.625 C6.270625 15.48996094 6.29125 16.35492188 6.3125 17.24609375 C6.38668734 29.61683347 1.36649782 38.08780237 -6.9140625 47.078125 C-14.97741378 54.71010358 -25.98539361 58.97199209 -37.0625 59.1875 C-41.1027437 58.99510744 -44.99809884 58.57170017 -49 58 C-49.495 56.515 -49.495 56.515 -50 55 C-49.67 54.34 -49.34 53.68 -49 53 C-48.030625 53.165 -47.06125 53.33 -46.0625 53.5 C-33.79300721 55.16865102 -22.80438847 53.11023891 -12.4765625 46.01171875 C-4.65973773 39.6620898 0.07316418 30.85438891 2 21 C2.4160455 13.68533962 2.19715369 7.00342737 0 0 Z " fill="#0B0403" transform="translate(407,230)"/>
<path d="M0 0 C1.73318664 2.36343632 2.01080944 3.56762249 1.9375 6.5 C0.65248331 9.92671116 -0.87988957 11.12793374 -4 13 C-7.0625 13.5 -7.0625 13.5 -10 13 C-12.76216182 10.9843684 -13.80101527 9.64287373 -14.8125 6.375 C-15 4 -15 4 -14 2 C-20.02900687 2.51241107 -26.02004643 3.069785 -32 4 C-32 3.34 -32 2.68 -32 2 C-32.99 1.67 -33.98 1.34 -35 1 C-24.71614098 -2.70778591 -9.5283794 -7.07723832 0 0 Z " fill="#080606" transform="translate(191,193)"/>
<path d="M0 0 C2 1 2 1 3 2 C3.10450575 3.94750627 3.13855367 5.89882442 3.14526367 7.84912109 C3.15164352 9.10066986 3.15802338 10.35221863 3.16459656 11.64169312 C3.16612528 13.01894085 3.16723922 14.39618911 3.16796875 15.7734375 C3.17118 17.17729731 3.17454397 18.58115678 3.17805481 19.98501587 C3.18405298 22.93240128 3.18589406 25.87975735 3.18530273 28.82714844 C3.18520118 32.60580257 3.19884299 36.3842685 3.21607494 40.16287804 C3.22718985 43.06420762 3.22922209 45.96549167 3.22869301 48.86684036 C3.2298743 50.25991081 3.23430441 51.6529824 3.24202538 53.04603195 C3.25181251 54.99469336 3.24768627 56.94340969 3.24291992 58.89208984 C3.24434494 60.00160004 3.24576996 61.11111023 3.24723816 62.25424194 C3 65 3 65 1 68 C1 48.2 1 28.4 1 8 C-1.18305108 7.7767056 -1.18305108 7.7767056 -2.91796875 9.73046875 C-9.02152266 16.33827496 -13.08398862 22.96651041 -17 31 C-17.99 31 -18.98 31 -20 31 C-20.66 31.33 -21.32 31.66 -22 32 C-18.38776709 19.19299241 -9.4866039 9.0001114 0 0 Z " fill="#241F1F" transform="translate(126,211)"/>
<path d="M0 0 C1.134375 0.50660156 2.26875 1.01320312 3.4375 1.53515625 C6.63955189 2.99471223 9.82461614 4.48347201 13 6 C10.92446352 6.5534764 9.15634036 7 7 7 C7.66 7.66 8.32 8.32 9 9 C8.67 9.99 8.34 10.98 8 12 C7.443125 11.59007812 6.88625 11.18015625 6.3125 10.7578125 C-2.29362281 4.681192 -9.48602977 3.18883316 -20 4 C-22.45672751 4.49304566 -24.63197966 5.15803721 -27 6 C-27 5.34 -27 4.68 -27 4 C-25.35 3.67 -23.7 3.34 -22 3 C-22 2.34 -22 1.68 -22 1 C-22.99 0.67 -23.98 0.34 -25 0 C-25.33 -0.66 -25.66 -1.32 -26 -2 C-17.60395665 -4.79868112 -7.96003552 -3.57416068 0 0 Z " fill="#100B0C" transform="translate(323,160)"/>
<path d="M0 0 C0.33 0 0.66 0 1 0 C1.29296875 5.95703125 1.29296875 5.95703125 1 8 C0.54238281 8.45246094 0.08476562 8.90492188 -0.38671875 9.37109375 C-2.69651286 11.70325875 -3.12400005 14.11100019 -4 17.25 C-5.15015188 21.33303916 -6.453522 25.17418326 -8.17041016 29.05419922 C-9.83297906 32.95375017 -11.2369788 36.9553802 -12.6875 40.9375 C-13.00783203 41.81212891 -13.32816406 42.68675781 -13.65820312 43.58789062 C-14.4405111 45.72464227 -15.22106917 47.86201546 -16 50 C-17.18029454 46.07303872 -16.56886395 44.08438097 -15.0625 40.25 C-14.68222656 39.26515625 -14.30195313 38.2803125 -13.91015625 37.265625 C-13.45962891 36.14414063 -13.45962891 36.14414063 -13 35 C-14.32 37.97 -15.64 40.94 -17 44 C-18.32197188 40.03408436 -17.3224484 38.44980904 -15.875 34.5625 C-15.64562744 33.94141357 -15.41625488 33.32032715 -15.17993164 32.68041992 C-13.32040435 27.70115309 -11.2832296 22.8010351 -9.203125 17.91015625 C-7.30999735 13.33100009 -5.64642759 8.6725431 -4 4 C-3.67 4.66 -3.34 5.32 -3 6 C-2.34 6 -1.68 6 -1 6 C-0.67 4.02 -0.34 2.04 0 0 Z " fill="#221919" transform="translate(215,172)"/>
<path d="M0 0 C3.875 1.75 3.875 1.75 5 4 C4.40759521 4.55486084 3.81519043 5.10972168 3.20483398 5.68139648 C0.96952562 8.03204686 -0.60009854 10.32722692 -2.27734375 13.09765625 C-2.87353516 14.06380859 -3.46972656 15.02996094 -4.08398438 16.02539062 C-5.32034155 18.05124458 -6.55211361 20.07990386 -7.77929688 22.11132812 C-8.37677734 23.07619141 -8.97425781 24.04105469 -9.58984375 25.03515625 C-10.12472412 25.9156665 -10.65960449 26.79617676 -11.21069336 27.70336914 C-13.21032943 30.26996438 -15.18520674 31.4248507 -18 33 C-18.33 33.66 -18.66 34.32 -19 35 C-19.66 35 -20.32 35 -21 35 C-19.66749209 31.4124787 -18.169283 28.1635377 -16 25 C-15.34 25 -14.68 25 -14 25 C-13.87995605 24.41138184 -13.75991211 23.82276367 -13.63623047 23.21630859 C-12.98229079 20.93830999 -12.1637692 19.47717296 -10.8203125 17.5390625 C-10.38589844 16.90226562 -9.95148438 16.26546875 -9.50390625 15.609375 C-9.04886719 14.95453125 -8.59382813 14.2996875 -8.125 13.625 C-5.06735578 9.20154929 -2.28644997 4.89088306 0 0 Z " fill="#130B0B" transform="translate(318,240)"/>
<path d="M0 0 C1.33162584 3.99487751 0.01226508 6.56568564 -1.3125 10.375 C-3.69933315 17.55438392 -5.13576248 24.46694459 -6 32 C-6.33 32 -6.66 32 -7 32 C-7.33 29.69 -7.66 27.38 -8 25 C-8.33 28.3 -8.66 31.6 -9 35 C-9.33 35 -9.66 35 -10 35 C-10.64883546 24.31223818 -9.63422188 12.44172339 -4 3 C-1.875 1.25 -1.875 1.25 0 0 Z " fill="#0F0A08" transform="translate(107,240)"/>
<path d="M0 0 C-3.12180401 0.96661363 -5.52083795 0.98988909 -8.75 0.5625 C-9.94882812 0.40974609 -9.94882812 0.40974609 -11.171875 0.25390625 C-12.07679688 0.12822266 -12.07679688 0.12822266 -13 0 C-12.34 0.66 -11.68 1.32 -11 2 C-12.24136719 2.26554688 -13.48273438 2.53109375 -14.76171875 2.8046875 C-16.40369522 3.16123096 -18.04561959 3.51801444 -19.6875 3.875 C-20.50412109 4.04902344 -21.32074219 4.22304687 -22.16210938 4.40234375 C-26.27820831 5.30221963 -30.14072444 6.25507296 -34 8 C-34 7.34 -34 6.68 -34 6 C-34.66 5.67 -35.32 5.34 -36 5 C-34.13032395 4.01070539 -32.25398622 3.03399531 -30.375 2.0625 C-29.33085937 1.51722656 -28.28671875 0.97195312 -27.2109375 0.41015625 C-19.15342257 -3.12848473 -8.10682814 -3.60303473 0 0 Z " fill="#100909" transform="translate(383,203)"/>
<path d="M0 0 C0.36552803 1.41377782 0.71695495 2.83120576 1.0625 4.25 C1.25972656 5.03890625 1.45695313 5.8278125 1.66015625 6.640625 C2.01497267 9.10394822 1.76877544 10.65604132 1 13 C0.01 12.67 -0.98 12.34 -2 12 C-2.99 12.33 -3.98 12.66 -5 13 C-5.66 12.34 -6.32 11.68 -7 11 C-7.99 11.66 -8.98 12.32 -10 13 C-11.37432457 9.18243176 -10.67975039 5.92744671 -10 2 C-8.68 2 -7.36 2 -6 2 C-6 2.66 -6 3.32 -6 4 C-5.34 4 -4.68 4 -4 4 C-4 3.01 -4 2.02 -4 1 C-2 0 -2 0 0 0 Z M-5 6 C-4 8 -4 8 -4 8 Z M-8 7 C-7 9 -7 9 -7 9 Z M-2 8 C-1 10 -1 10 -1 10 Z " fill="#110707" transform="translate(144,301)"/>
<path d="M0 0 C0.33 0.66 0.66 1.32 1 2 C0.29296875 4.06640625 0.29296875 4.06640625 -0.8125 6.5625 C-2.55525543 10.70905601 -3.74924783 14.68070611 -4.60546875 19.08984375 C-5 21 -5 21 -6 24 C-6.66 24 -7.32 24 -8 24 C-8.66 26.31 -9.32 28.62 -10 31 C-10.66 31 -11.32 31 -12 31 C-11.60983685 23.19673706 -9.24226342 17.07076635 -6 10 C-5.34 10 -4.68 10 -4 10 C-3.79503906 9.36191406 -3.59007812 8.72382813 -3.37890625 8.06640625 C-3.10949219 7.24011719 -2.84007812 6.41382813 -2.5625 5.5625 C-2.16224609 4.32693359 -2.16224609 4.32693359 -1.75390625 3.06640625 C-1 1 -1 1 0 0 Z " fill="#170F0E" transform="translate(202,206)"/>
<path d="M0 0 C1.33599921 0.32248257 2.66893378 0.65772583 4 1 C5.32 1 6.64 1 8 1 C9.42857143 9.57142857 9.42857143 9.57142857 7 13 C6.34 13 5.68 13 5 13 C5 11.35 5 9.7 5 8 C4.01 8.495 4.01 8.495 3 9 C3.33 9.66 3.66 10.32 4 11 C3.34 11 2.68 11 2 11 C2 11.66 2 12.32 2 13 C1.01 12.67 0.02 12.34 -1 12 C-1.02687279 10.18757948 -1.04633715 8.37504767 -1.0625 6.5625 C-1.07410156 5.55316406 -1.08570313 4.54382813 -1.09765625 3.50390625 C-1 1 -1 1 0 0 Z M4 2 C4 2.66 4 3.32 4 4 C3.01 4.495 3.01 4.495 2 5 C2.99 5 3.98 5 5 5 C4.67 4.01 4.34 3.02 4 2 Z " fill="#180C0C" transform="translate(192,301)"/>
<path d="M0 0 C0 0.33 0 0.66 0 1 C-4.29 1 -8.58 1 -13 1 C-13 1.66 -13 2.32 -13 3 C-10.69 3 -8.38 3 -6 3 C-6.66 4.32 -7.32 5.64 -8 7 C-8.33 6.34 -8.66 5.68 -9 5 C-15.02900687 5.51241107 -21.02004643 6.069785 -27 7 C-27 6.34 -27 5.68 -27 5 C-27.99 4.67 -28.98 4.34 -30 4 C-19.85295556 0.3415418 -10.75754642 -0.13428283 0 0 Z " fill="#160F0F" transform="translate(186,190)"/>
<path d="M0 0 C1.134375 0.020625 2.26875 0.04125 3.4375 0.0625 C3.7675 0.7225 4.0975 1.3825 4.4375 2.0625 C3.7775 2.0625 3.1175 2.0625 2.4375 2.0625 C2.623125 2.805 2.80875 3.5475 3 4.3125 C3.42953108 7.01240963 3.28872974 8.50881077 2.4375 11.0625 C3.0975 11.3925 3.7575 11.7225 4.4375 12.0625 C2.4575 12.7225 0.4775 13.3825 -1.5625 14.0625 C-3.77712117 12.30245897 -4.50753183 11.47214372 -4.890625 8.6171875 C-4.86484375 7.73289062 -4.8390625 6.84859375 -4.8125 5.9375 C-4.79703125 5.04804688 -4.7815625 4.15859375 -4.765625 3.2421875 C-4.4230734 -0.43365465 -3.86834078 0.06786563 0 0 Z M-0.5625 8.0625 C-0.8925 8.7225 -1.2225 9.3825 -1.5625 10.0625 C-0.5725 9.7325 0.4175 9.4025 1.4375 9.0625 C0.7775 8.7325 0.1175 8.4025 -0.5625 8.0625 Z " fill="#190E0C" transform="translate(234.5625,300.9375)"/>
<path d="M0 0 C2.9375 0.9375 2.9375 0.9375 4.3125 3 C4.51875 3.639375 4.725 4.27875 4.9375 4.9375 C1.9375 4.9375 1.9375 4.9375 -1.0625 2.9375 C-2.18035113 5.05535113 -2.18035113 5.05535113 -3.0625 7.9375 C-1.21524948 8.62909401 -1.21524948 8.62909401 0.9375 8.9375 C1.9275 8.2775 2.9175 7.6175 3.9375 6.9375 C4.2675 7.9275 4.5975 8.9175 4.9375 9.9375 C3.8125 11.5 3.8125 11.5 1.9375 12.9375 C-1.55497517 12.8647401 -3.3850524 12.54938815 -6 10.1875 C-7.0625 7.9375 -7.0625 7.9375 -6.9375 5.375 C-5.45879145 1.25574046 -4.53727373 -0.09259742 0 0 Z " fill="#160A06" transform="translate(176.0625,301.0625)"/>
<path d="M0 0 C0.99 0.33 1.98 0.66 3 1 C2.67 2.32 2.34 3.64 2 5 C3.32 5 4.64 5 6 5 C6 3.35 6 1.7 6 0 C8.10633718 1.70828921 8.93801608 2.52148416 9.29296875 5.26171875 C9.25816406 6.06222656 9.22335937 6.86273438 9.1875 7.6875 C9.16042969 8.49574219 9.13335937 9.30398438 9.10546875 10.13671875 C9.07066406 10.75160156 9.03585937 11.36648438 9 12 C7.68 12 6.36 12 5 12 C3.25 10 3.25 10 2 8 C2.33 9.32 2.66 10.64 3 12 C2.01 12 1.02 12 0 12 C0 8.04 0 4.08 0 0 Z " fill="#170C0B" transform="translate(300,301)"/>
<path d="M0 0 C2.67901932 2.31881505 3.66204403 4.31814468 4.6875 7.6875 C5.06455078 8.89986328 5.06455078 8.89986328 5.44921875 10.13671875 C5.63097656 10.75160156 5.81273437 11.36648438 6 12 C2.23312136 12 1.08809695 11.76462683 -2 10 C-2.33 10.99 -2.66 11.98 -3 13 C-3.66 12.67 -4.32 12.34 -5 12 C-4.55149342 10.18504338 -4.09090429 8.37306866 -3.625 6.5625 C-3.36976563 5.55316406 -3.11453125 4.54382813 -2.8515625 3.50390625 C-2 1 -2 1 0 0 Z " fill="#1D0F0E" transform="translate(215,301)"/>
<path d="M0 0 C0.33 0.66 0.66 1.32 1 2 C1.8971875 1.6596875 1.8971875 1.6596875 2.8125 1.3125 C3.8953125 1.1578125 3.8953125 1.1578125 5 1 C6.75 2.4375 6.75 2.4375 8 4 C6 5 6 5 5 5 C5 5.66 5 6.32 5 7 C6.32 7.66 7.64 8.32 9 9 C8.25 10.9375 8.25 10.9375 7 13 C4.04680182 14.23843794 3.12561472 14.04187157 0 13 C0 12.01 0 11.02 0 10 C2.97 10.495 2.97 10.495 6 11 C6 10.34 6 9.68 6 9 C4.35 9 2.7 9 1 9 C-1.125 3.375 -1.125 3.375 0 0 Z " fill="#110808" transform="translate(281,300)"/>
<path d="M0 0 C5.28 0.99 10.56 1.98 16 3 C16 3.99 16 4.98 16 6 C10.53862186 6.09752461 5.40744018 5.77249145 0 5 C-0.33 4.01 -0.66 3.02 -1 2 C-0.67 1.34 -0.34 0.68 0 0 Z " fill="#040101" transform="translate(358,283)"/>
<path d="M0 0 C0.99 0.33 1.98 0.66 3 1 C3.33 5.29 3.66 9.58 4 14 C3.34 14 2.68 14 2 14 C2 11.36 2 8.72 2 6 C1.34 6 0.68 6 0 6 C0 13.92 0 21.84 0 30 C-0.33 30 -0.66 30 -1 30 C-1.19224376 26.0495047 -1.37096681 22.09865416 -1.53710938 18.14697266 C-1.59555475 16.80240434 -1.65771076 15.45799202 -1.72363281 14.11376953 C-1.81767443 12.18306663 -1.89732692 10.2516797 -1.9765625 8.3203125 C-2.05511475 6.57645264 -2.05511475 6.57645264 -2.13525391 4.79736328 C-2 2 -2 2 0 0 Z " fill="#140B0A" transform="translate(270,234)"/>
<path d="M0 0 C0.99 0.495 0.99 0.495 2 1 C2.59355614 3.64860427 2.74209269 6.29197322 3 9 C3.66 9 4.32 9 5 9 C5.33 6.36 5.66 3.72 6 1 C6.66 1 7.32 1 8 1 C8 4.3 8 7.6 8 11 C5.6875 12.125 5.6875 12.125 3 13 C2.01 12.34 1.02 11.68 0 11 C-0.29296875 8.3984375 -0.29296875 8.3984375 -0.1875 5.375 C-0.16042969 4.37210937 -0.13335937 3.36921875 -0.10546875 2.3359375 C-0.07066406 1.56507813 -0.03585937 0.79421875 0 0 Z " fill="#1B0D0B" transform="translate(368,301)"/>
<path d="M0 0 C0.5534764 2.07553648 1 3.84365964 1 6 C1.66 5.01 2.32 4.02 3 3 C2.34 8.61 1.68 14.22 1 20 C0.67 20 0.34 20 0 20 C-0.33 17.69 -0.66 15.38 -1 13 C-1.33 16.3 -1.66 19.6 -2 23 C-2.33 23 -2.66 23 -3 23 C-3.34937193 14.74447081 -2.94397288 7.7629761 0 0 Z " fill="#170E0F" transform="translate(100,252)"/>
<path d="M0 0 C1.65 0.33 3.3 0.66 5 1 C4.505 1.78375 4.01 2.5675 3.5 3.375 C1.83462035 5.78552327 1.83462035 5.78552327 2 8 C3.70940029 9.60228383 5.53301528 11.01294742 7.37109375 12.46484375 C9 14 9 14 10 17 C9.34 17 8.68 17 8 17 C7.195625 16.030625 6.39125 15.06125 5.5625 14.0625 C3.29315623 10.80624673 3.29315623 10.80624673 0 10 C-0.66 9.01 -1.32 8.02 -2 7 C-2.99 7.495 -2.99 7.495 -4 8 C-3.40072174 4.64404172 -2.15377564 2.62198774 0 0 Z " fill="#130E0D" transform="translate(334,219)"/>
<path d="M0 0 C0.36552803 1.41377782 0.71695495 2.83120576 1.0625 4.25 C1.25972656 5.03890625 1.45695313 5.8278125 1.66015625 6.640625 C2.01497267 9.10394822 1.76877544 10.65604132 1 13 C0.01 12.67 -0.98 12.34 -2 12 C-2.99 12.33 -3.98 12.66 -5 13 C-4.67 11.02 -4.34 9.04 -4 7 C-3.34 7.33 -2.68 7.66 -2 8 C-2.66 5.69 -3.32 3.38 -4 1 C-2 0 -2 0 0 0 Z " fill="#080202" transform="translate(144,301)"/>
<path d="M0 0 C1.32 0.66 2.64 1.32 4 2 C4.08090971 3.62418745 4.13914995 5.24951745 4.1875 6.875 C4.22230469 7.77992188 4.25710937 8.68484375 4.29296875 9.6171875 C4.19628906 10.40351563 4.09960938 11.18984375 4 12 C3.01 12.66 2.02 13.32 1 14 C-0.72488307 12.27511693 -0.41081633 9.91546061 -0.625 7.5625 C-0.76808594 6.07943359 -0.76808594 6.07943359 -0.9140625 4.56640625 C-1 2 -1 2 0 0 Z " fill="#040100" transform="translate(156,300)"/>
<path d="M0 0 C0 3.57575896 -1.08840607 5.05295935 -3 8 C-2.34 8 -1.68 8 -1 8 C-2.75 13.75 -2.75 13.75 -5 16 C-5.66 16 -6.32 16 -7 16 C-7.66 16.33 -8.32 16.66 -9 17 C-7.28295898 10.91230912 -4.52107613 4.52107613 0 0 Z " fill="#191010" transform="translate(113,226)"/>
<path d="M0 0 C0.33 0.66 0.66 1.32 1 2 C1.66 2 2.32 2 3 2 C3.33 1.34 3.66 0.68 4 0 C3.39124245 4.60416626 2.15277044 8.56483324 0.4375 12.875 C-0.01753906 14.02742187 -0.47257813 15.17984375 -0.94140625 16.3671875 C-1.46541016 17.67042969 -1.46541016 17.67042969 -2 19 C-3.43410153 15.21180727 -2.51009497 12.93478721 -1.0625 9.25 C-0.49208984 7.77273437 -0.49208984 7.77273437 0.08984375 6.265625 C0.39019531 5.51796875 0.69054687 4.7703125 1 4 C-0.98 8.455 -0.98 8.455 -3 13 C-4.12509213 9.62472362 -3.90597042 9.08116594 -2.625 5.9375 C-2.34914062 5.24527344 -2.07328125 4.55304688 -1.7890625 3.83984375 C-1.23249348 2.54210114 -0.63149109 1.26298217 0 0 Z " fill="#2E2223" transform="translate(201,203)"/>
<path d="M0 0 C0.33 0.99 0.66 1.98 1 3 C-0.328125 5.48046875 -0.328125 5.48046875 -2.25 8.1875 C-2.87390625 9.08855469 -3.4978125 9.98960937 -4.140625 10.91796875 C-4.75421875 11.60503906 -5.3678125 12.29210937 -6 13 C-6.99 13 -7.98 13 -9 13 C-7.47987323 7.59510481 -3.72614782 4.01507372 0 0 Z " fill="#0E0705" transform="translate(119,221)"/>
<path d="M0 0 C1.11375 0.495 1.11375 0.495 2.25 1 C-0.87180401 1.96661363 -3.27083795 1.98988909 -6.5 1.5625 C-7.69882812 1.40974609 -7.69882812 1.40974609 -8.921875 1.25390625 C-9.52515625 1.17011719 -10.1284375 1.08632812 -10.75 1 C-10.09 1.66 -9.43 2.32 -8.75 3 C-10.73 3 -12.71 3 -14.75 3 C-14.75 2.67 -14.75 2.34 -14.75 2 C-16.4 1.67 -18.05 1.34 -19.75 1 C-13.91241666 -2.51930862 -6.36034381 -1.69609168 0 0 Z " fill="#231816" transform="translate(380.75,202)"/>
<path d="M0 0 C0.99 0.33 1.98 0.66 3 1 C2.67 3.97 2.34 6.94 2 10 C3.32 10.66 4.64 11.32 6 12 C2.98968256 12.93423645 2.13349732 13.04449911 -1 12 C-1.02687279 10.18757948 -1.04633715 8.37504767 -1.0625 6.5625 C-1.07410156 5.55316406 -1.08570313 4.54382813 -1.09765625 3.50390625 C-1 1 -1 1 0 0 Z " fill="#1D0E0A" transform="translate(250,301)"/>
<path d="M0 0 C0.33 0.66 0.66 1.32 1 2 C0.01 2.495 0.01 2.495 -1 3 C-1 5.97 -1 8.94 -1 12 C-1.99 12.33 -2.98 12.66 -4 13 C-4.07347656 11.95199219 -4.07347656 11.95199219 -4.1484375 10.8828125 C-4.26058594 9.51769531 -4.26058594 9.51769531 -4.375 8.125 C-4.44460938 7.22007812 -4.51421875 6.31515625 -4.5859375 5.3828125 C-4.79568132 2.82058097 -4.79568132 2.82058097 -7 1 C-4.53721199 -0.231394 -2.7204945 -0.07159196 0 0 Z " fill="#0E0504" transform="translate(339,301)"/>
<path d="M0 0 C0.6875 1.6875 0.6875 1.6875 1 4 C-0.4375 6.75 -0.4375 6.75 -2 9 C-2.33 8.34 -2.66 7.68 -3 7 C-3.66 7 -4.32 7 -5 7 C-5.28875 7.94875 -5.5775 8.8975 -5.875 9.875 C-7 13 -7 13 -9 15 C-8.52583422 10.02125936 -7.0900669 6.93281242 -4 3 C-3.34 3 -2.68 3 -2 3 C-2 2.34 -2 1.68 -2 1 C-1.34 0.67 -0.68 0.34 0 0 Z " fill="#171112" transform="translate(279,166)"/>
<path d="M0 0 C0.66 0.99 1.32 1.98 2 3 C1.01 4.485 1.01 4.485 0 6 C-0.07905064 8.33199388 -0.08798769 10.66832622 0 13 C-0.99 13 -1.98 13 -3 13 C-3.07347656 12.06027344 -3.07347656 12.06027344 -3.1484375 11.1015625 C-3.22320312 10.28429687 -3.29796875 9.46703125 -3.375 8.625 C-3.44460938 7.81289063 -3.51421875 7.00078125 -3.5859375 6.1640625 C-3.82892588 3.79665809 -3.82892588 3.79665809 -6 2 C-4.02 2 -2.04 2 0 2 C0 1.34 0 0.68 0 0 Z " fill="#150806" transform="translate(355,300)"/>
<path d="M0 0 C2 3 2 3 3 6 C-0.76687864 6 -1.91190305 5.76462683 -5 4 C-5.33 4.99 -5.66 5.98 -6 7 C-6.66 6.67 -7.32 6.34 -8 6 C-7.67 4.68 -7.34 3.36 -7 2 C-4.69 2 -2.38 2 0 2 C0 1.34 0 0.68 0 0 Z " fill="#130404" transform="translate(218,307)"/>
<path d="M0 0 C1.134375 0.020625 2.26875 0.04125 3.4375 0.0625 C3.7675 0.7225 4.0975 1.3825 4.4375 2.0625 C3.7775 2.0625 3.1175 2.0625 2.4375 2.0625 C2.4375 3.3825 2.4375 4.7025 2.4375 6.0625 C0.7875 6.0625 -0.8625 6.0625 -2.5625 6.0625 C-3.2225 4.4125 -3.8825 2.7625 -4.5625 1.0625 C-3.5625 0.0625 -3.5625 0.0625 0 0 Z " fill="#261816" transform="translate(234.5625,300.9375)"/>
<path d="M0 0 C0.99 0.33 1.98 0.66 3 1 C4.42857143 9.57142857 4.42857143 9.57142857 2 13 C1.34 13 0.68 13 0 13 C-0.14285714 5.57142857 -0.14285714 5.57142857 1 2 C0.34 1.67 -0.32 1.34 -1 1 C-0.67 0.67 -0.34 0.34 0 0 Z " fill="#0D0302" transform="translate(197,301)"/>
<path d="M0 0 C-3.465 1.485 -3.465 1.485 -7 3 C-7 3.99 -7 4.98 -7 6 C-8.32 6.33 -9.64 6.66 -11 7 C-11 6.34 -11 5.68 -11 5 C-11.66 4.67 -12.32 4.34 -13 4 C-11.40233897 3.13372601 -9.79660056 2.28233535 -8.1875 1.4375 C-7.29417969 0.96183594 -6.40085937 0.48617187 -5.48046875 -0.00390625 C-3 -1 -3 -1 0 0 Z " fill="#160F0D" transform="translate(360,204)"/>
<path d="M0 0 C3 1 3 1 4.25 2.75 C5.20134886 5.60404659 4.96845024 7.16914545 4 10 C3.01 10.66 2.02 11.32 1 12 C1.33 10.02 1.66 8.04 2 6 C1.01 5.34 0.02 4.68 -1 4 C-0.34 3.34 0.32 2.68 1 2 C0.67 1.34 0.34 0.68 0 0 Z " fill="#1C1412" transform="translate(188,192)"/>
<path d="M0 0 C-4.95 1.485 -4.95 1.485 -10 3 C-9.01 3.66 -8.02 4.32 -7 5 C-8.65 5 -10.3 5 -12 5 C-12 4.34 -12 3.68 -12 3 C-13.65 3 -15.3 3 -17 3 C-17 2.67 -17 2.34 -17 2 C-14.73139163 1.4695592 -12.46001511 0.95094566 -10.1875 0.4375 C-8.29064453 0.00244141 -8.29064453 0.00244141 -6.35546875 -0.44140625 C-3 -1 -3 -1 0 0 Z " fill="#150E0A" transform="translate(386,283)"/>
<path d="M0 0 C4.2742558 1.5830577 6.26531794 4.50568404 9 8 C8.67 8.66 8.34 9.32 8 10 C6.33333333 8.33333333 4.66666667 6.66666667 3 5 C2.401875 4.443125 1.80375 3.88625 1.1875 3.3125 C0 2 0 2 0 0 Z " fill="#0A0302" transform="translate(396,213)"/>
<path d="M0 0 C1.485 0.99 1.485 0.99 3 2 C2.8864371 3.64666203 2.75882619 5.29236082 2.625 6.9375 C2.52058594 8.31228516 2.52058594 8.31228516 2.4140625 9.71484375 C2.27742188 10.46894531 2.14078125 11.22304688 2 12 C1.01 12.495 1.01 12.495 0 13 C-0.96661363 9.87819599 -0.98988909 7.47916205 -0.5625 4.25 C-0.46066406 3.45078125 -0.35882813 2.6515625 -0.25390625 1.828125 C-0.17011719 1.22484375 -0.08632813 0.6215625 0 0 Z " fill="#110907" transform="translate(320,301)"/>
<path d="M0 0 C0.66 0.33 1.32 0.66 2 1 C1.25 5.75 1.25 5.75 -1 8 C-1.70710678 9.64991582 -2.37943989 11.31562256 -3 13 C-4.15019009 9.54942972 -3.80497206 8.69840756 -2.625 5.375 C-2.34914063 4.57835937 -2.07328125 3.78171875 -1.7890625 2.9609375 C-1 1 -1 1 0 0 Z " fill="#050102" transform="translate(103,250)"/>
<path d="M0 0 C-0.33 0.99 -0.66 1.98 -1 3 C-3.64 3 -6.28 3 -9 3 C-6.27596221 -1.08605669 -4.4643819 -1.38549783 0 0 Z " fill="#050100" transform="translate(143,282)"/>
<path d="M0 0 C1.13643966 3.40931897 0.86747764 4.00335456 -0.4375 7.1875 C-0.72496094 7.90292969 -1.01242188 8.61835938 -1.30859375 9.35546875 C-1.53675781 9.89816406 -1.76492187 10.44085938 -2 11 C-2.33 10.01 -2.66 9.02 -3 8 C-2.67 7.34 -2.34 6.68 -2 6 C-2.66 6 -3.32 6 -4 6 C-4.33 6.66 -4.66 7.32 -5 8 C-4.625 5.0625 -4.625 5.0625 -4 2 C-3.34 1.67 -2.68 1.34 -2 1 C-2 1.99 -2 2.98 -2 4 C-1.34 2.68 -0.68 1.36 0 0 Z " fill="#241C1D" transform="translate(187,248)"/>
<path d="M0 0 C0.99 0.33 1.98 0.66 3 1 C1.515 3.475 1.515 3.475 0 6 C-2.97 5.505 -2.97 5.505 -6 5 C-4.06745228 2.9754262 -2.36841312 1.57894208 0 0 Z " fill="#140D0D" transform="translate(286,161)"/>
<path d="M0 0 C0.94875 0.350625 1.8975 0.70125 2.875 1.0625 C5.87060172 2.35026777 5.87060172 2.35026777 8 1 C8.66 1.33 9.32 1.66 10 2 C9.34 3.32 8.68 4.64 8 6 C1.125 2.25 1.125 2.25 0 0 Z " fill="#120D0E" transform="translate(310,234)"/>
<path d="M0 0 C1.3609623 2.7219246 0.70366248 4.1831957 0.0625 7.125 C-0.13214844 8.03507813 -0.32679688 8.94515625 -0.52734375 9.8828125 C-0.68332031 10.58148438 -0.83929688 11.28015625 -1 12 C-1.66 12 -2.32 12 -3 12 C-2.14285714 3.42857143 -2.14285714 3.42857143 0 0 Z " fill="#170F0E" transform="translate(215,166)"/>
<path d="M0 0 C0.66 0.33 1.32 0.66 2 1 C2 3.31 2 5.62 2 8 C1.01 8 0.02 8 -1 8 C-1.625 5.6875 -1.625 5.6875 -2 3 C-1.34 2.01 -0.68 1.02 0 0 Z " fill="#20130F" transform="translate(171,303)"/>
<path d="M0 0 C0.99 0.33 1.98 0.66 3 1 C2.34 2.65 1.68 4.3 1 6 C-0.32 6 -1.64 6 -3 6 C-2.01 4.02 -1.02 2.04 0 0 Z " fill="#0C0404" transform="translate(305,263)"/>
<path d="M0 0 C1.32 0.66 2.64 1.32 4 2 C3 4 3 4 0.6875 5.1875 C-2.11989571 6.03624754 -3.301935 5.99928333 -6 5 C-2.25 2 -2.25 2 0 2 C0 1.34 0 0.68 0 0 Z " fill="#0E0707" transform="translate(138,203)"/>
<path d="M0 0 C1.6415049 3.2830098 0.51888624 6.42545033 0 10 C-1.32 10.33 -2.64 10.66 -4 11 C-3.5247412 9.35303396 -3.04468109 7.70745272 -2.5625 6.0625 C-2.29566406 5.14597656 -2.02882812 4.22945312 -1.75390625 3.28515625 C-1 1 -1 1 0 0 Z " fill="#0A0304" transform="translate(209,186)"/>
<path d="M0 0 C0.66 0 1.32 0 2 0 C1.67 2.31 1.34 4.62 1 7 C0.01 6.67 -0.98 6.34 -2 6 C-2.33 4.35 -2.66 2.7 -3 1 C-2.01 1.495 -2.01 1.495 -1 2 C-0.67 1.34 -0.34 0.68 0 0 Z " fill="#0F0A0A" transform="translate(183,254)"/>
<path d="M0 0 C0.625 3.0625 0.625 3.0625 1 6 C-3.67692308 4.52307692 -3.67692308 4.52307692 -5.3125 1.875 C-5.539375 1.25625 -5.76625 0.6375 -6 0 C-2.25 -1.125 -2.25 -1.125 0 0 Z " fill="#130A0C" transform="translate(288,213)"/>
<path d="M0 0 C0.66 1.32 1.32 2.64 2 4 C1.01 5.32 0.02 6.64 -1 8 C-3 5 -3 5 -2.625 2.8125 C-2.41875 2.214375 -2.2125 1.61625 -2 1 C-1.34 1.33 -0.68 1.66 0 2 C0 1.34 0 0.68 0 0 Z " fill="#211B1C" transform="translate(133,176)"/>
<path d="M0 0 C2.31 0.33 4.62 0.66 7 1 C7 1.33 7 1.66 7 2 C5.35 2 3.7 2 2 2 C2.33 3.65 2.66 5.3 3 7 C2.01 7 1.02 7 0 7 C0 4.69 0 2.38 0 0 Z " fill="#0E0401" transform="translate(300,306)"/>
<path d="M0 0 C0.33 1.32 0.66 2.64 1 4 C-0.32 4.99 -1.64 5.98 -3 7 C-3.66 6.67 -4.32 6.34 -5 6 C-5 5.01 -5 4.02 -5 3 C-2.5 1.3125 -2.5 1.3125 0 0 Z " fill="#120B0B" transform="translate(393,277)"/>
<path d="M0 0 C0.66 0 1.32 0 2 0 C1.60196439 2.88575819 1.20990931 3.82189513 -1.0625 5.75 C-1.701875 6.1625 -2.34125 6.575 -3 7 C-2.25 2.25 -2.25 2.25 0 0 Z " fill="#0C0707" transform="translate(125,214)"/>
<path d="M0 0 C-0.33 0.66 -0.66 1.32 -1 2 C-3.64860427 2.59355614 -6.29197322 2.74209269 -9 3 C-8 1 -8 1 -5.625 -0.1875 C-3 -1 -3 -1 0 0 Z " fill="#090202" transform="translate(361,205)"/>
<path d="M0 0 C-0.66 0.66 -1.32 1.32 -2 2 C-4.3828125 1.7578125 -4.3828125 1.7578125 -7.125 1.125 C-8.03507812 0.92132813 -8.94515625 0.71765625 -9.8828125 0.5078125 C-10.58148438 0.34023437 -11.28015625 0.17265625 -12 0 C-12 -0.33 -12 -0.66 -12 -1 C-7.28400182 -1.92470553 -4.32734391 -2.22923777 0 0 Z " fill="#120906" transform="translate(385,206)"/>
<path d="M0 0 C0.99 0 1.98 0 3 0 C3 0.66 3 1.32 3 2 C3.66 2.33 4.32 2.66 5 3 C0.56923077 5.09230769 0.56923077 5.09230769 -2.3125 4.625 C-2.869375 4.41875 -3.42625 4.2125 -4 4 C-2.35 3.34 -0.7 2.68 1 2 C0.67 1.34 0.34 0.68 0 0 Z " fill="#1A0D0D" transform="translate(205,358)"/>
<path d="M0 0 C0.66 0.33 1.32 0.66 2 1 C1.01 2.98 0.02 4.96 -1 7 C-3 6 -3 6 -4 3 C-2.68 2.01 -1.36 1.02 0 0 Z " fill="#181313" transform="translate(292,168)"/>
<path d="" fill="#2A0000" transform="translate(0,0)"/>
<path d="" fill="#000000" transform="translate(0,0)"/>
<path d="" fill="#202020" transform="translate(0,0)"/>
<path d="" fill="#240000" transform="translate(0,0)"/>
<path d="" fill="#240000" transform="translate(0,0)"/>
</svg>
