<?xml version="1.0" encoding="UTF-8"?>
<svg version="1.1" xmlns="http://www.w3.org/2000/svg" width="500" height="500">
<path d="M0 0 C5.05300293 2.66560462 8.28571096 3.5271295 13.9375 2.875 C14.5975 0.895 15.2575 -1.085 15.9375 -3.125 C16.9275 -2.795 17.9175 -2.465 18.9375 -2.125 C19.93190216 2.6039347 19.90315891 6.96770118 19.5 11.75 C19.44779297 12.43835938 19.39558594 13.12671875 19.34179688 13.8359375 C19.21344902 15.51612758 19.07637775 17.19564749 18.9375 18.875 C20.13246094 18.35099609 20.13246094 18.35099609 21.3515625 17.81640625 C22.41117187 17.36136719 23.47078125 16.90632813 24.5625 16.4375 C26.12871094 15.75880859 26.12871094 15.75880859 27.7265625 15.06640625 C40.92828867 10.16795554 54.19385415 13.38874332 66.7890625 18.39453125 C71.45496308 20.58854654 75.14015224 23.42083101 78.9375 26.875 C79.56269531 27.42027344 80.18789063 27.96554688 80.83203125 28.52734375 C90.15626883 37.16089706 96.36268006 49.91346288 97.17578125 62.58984375 C97.65074558 80.5447733 92.49125554 94.54846279 80.15625 107.80859375 C68.69267265 118.48505928 54.45363369 122.130605 39.15234375 122.04296875 C35.14830877 121.83376644 31.75327957 121.07210732 27.9375 119.875 C28.2675 118.225 28.5975 116.575 28.9375 114.875 C29.5871875 115.03355469 30.236875 115.19210937 30.90625 115.35546875 C44.31048646 117.65284433 58.28324586 116.38934195 69.875 108.9375 C71.24205746 107.93399516 72.59771157 106.91463216 73.9375 105.875 C74.96875 105.1325 76 104.39 77.0625 103.625 C85.92373427 95.14903679 91.34333676 84.02739918 92.140625 71.74609375 C92.33803043 57.28614621 88.90517 46.49496778 80.6875 34.625 C69.77683429 23.71433429 56.56938061 18.6581426 41.32568359 18.54711914 C33.81609934 18.65561939 26.67021536 20.50864232 19.9375 23.875 C19.62508545 26.58946979 19.42413408 29.21409361 19.3125 31.9375 C19.27382813 32.69611328 19.23515625 33.45472656 19.1953125 34.23632812 C19.10076438 36.11547195 19.01803244 37.99520336 18.9375 39.875 C17.6175 39.545 16.2975 39.215 14.9375 38.875 C14.6075 35.245 14.2775 31.615 13.9375 27.875 C8.38601062 32.25213586 3.91745096 37.07901846 -0.5 42.5625 C-1.03206055 43.21613525 -1.56412109 43.86977051 -2.11230469 44.54321289 C-2.61020508 45.17219482 -3.10810547 45.80117676 -3.62109375 46.44921875 C-4.29096313 47.29359497 -4.29096313 47.29359497 -4.97436523 48.1550293 C-6.1696681 50.04439629 -6.63778151 51.69171415 -7.0625 53.875 C-6.06089844 54.52726562 -5.05929687 55.17953125 -4.02734375 55.8515625 C21.05728813 72.28784284 21.05728813 72.28784284 25.53515625 86.453125 C27.32247876 97.21176536 26.80728077 106.96142523 20.4296875 116.015625 C14.1891027 123.85263847 6.65574058 127.29954046 -3.0625 128.875 C-6.31852827 129.17632396 -9.54353144 129.25604952 -12.8125 129.25 C-14.11803833 129.24867065 -14.11803833 129.24867065 -15.44995117 129.24731445 C-24.35626172 129.08505207 -31.80070505 126.89180278 -39.875 123.125 C-43.93457037 121.53301162 -46.72565232 121.58097643 -51.0625 121.875 C-53.22602397 122.69380887 -53.22602397 122.69380887 -53.9375 124.8125 C-55.0625 126.875 -55.0625 126.875 -56.8515625 127.61328125 C-60.01094087 129.41624806 -61.59191506 132.16251794 -63.5625 135.125 C-67.65373116 141.07891814 -72.07214198 146.5870322 -76.86328125 151.99121094 C-80.21669592 155.79341819 -83.37562784 159.56491427 -86.0625 163.875 C-85.64544516 165.95338823 -85.64544516 165.95338823 -85.0625 167.875 C-86.3125 169.625 -86.3125 169.625 -88.0625 170.875 C-89.0525 170.875 -90.0425 170.875 -91.0625 170.875 C-91.0625 172.195 -91.0625 173.515 -91.0625 174.875 C-89.0825 174.215 -87.1025 173.555 -85.0625 172.875 C-85.375 175.25 -85.375 175.25 -86.0625 177.875 C-89.184502 179.95633467 -89.99516989 180.1487822 -93.5625 180.125 C-94.72265625 180.13273437 -94.72265625 180.13273437 -95.90625 180.140625 C-98.0625 179.875 -98.0625 179.875 -101.0625 177.875 C-101.69414062 178.39707031 -102.32578125 178.91914063 -102.9765625 179.45703125 C-105.43780198 181.48205682 -107.9069561 183.49693286 -110.38134766 185.50585938 C-111.50104785 186.41774998 -112.61792603 187.33311682 -113.73193359 188.25195312 C-122.06484825 195.11520516 -130.48755635 200.88186113 -140.0625 205.875 C-140.91585937 206.34550781 -141.76921875 206.81601562 -142.6484375 207.30078125 C-163.27003763 217.80673841 -187.72606553 218.33905932 -210.0625 214.875 C-211.08472656 214.73835937 -212.10695313 214.60171875 -213.16015625 214.4609375 C-229.95898115 211.49513706 -246.38573166 202.03567068 -259.0625 190.875 C-260.37347656 189.80185547 -260.37347656 189.80185547 -261.7109375 188.70703125 C-281.34023916 172.12782108 -294.01296307 146.43837943 -296.88378906 121.06298828 C-299.29191083 91.57994553 -293.03988226 63.25344493 -274.0625 39.875 C-271.14984395 36.45426406 -268.14188123 33.14578701 -265.0625 29.875 C-264.51207031 29.26011719 -263.96164062 28.64523438 -263.39453125 28.01171875 C-246.62178763 9.99654968 -219.38594801 -0.48234338 -195.18188477 -1.4987793 C-194.52373779 -1.51980713 -193.86559082 -1.54083496 -193.1875 -1.5625 C-191.97320312 -1.60246094 -190.75890625 -1.64242187 -189.5078125 -1.68359375 C-185.28758388 -0.99936167 -182.87623375 0.77637296 -180.0625 3.875 C-178.63330078 7.00512695 -178.63330078 7.00512695 -177.6328125 10.55078125 C-177.22884012 11.89542024 -176.82009152 13.23863115 -176.40722656 14.58056641 C-176.1934436 15.28296448 -175.97966064 15.98536255 -175.75939941 16.70904541 C-174.56354094 20.42575848 -173.1234572 24.04182053 -171.6796875 27.66796875 C-171.2304895 28.80141724 -171.2304895 28.80141724 -170.7722168 29.95776367 C-169.83051375 32.32729819 -168.88401855 34.69488551 -167.9375 37.0625 C-167.27461093 38.72979997 -166.61218203 40.39728296 -165.95019531 42.06494141 C-164.62233799 45.40931836 -163.29278658 48.75301326 -161.96191406 52.09619141 C-159.22617133 58.97322303 -156.51782775 65.86095972 -153.8125 72.75 C-153.37147949 73.87043701 -152.93045898 74.99087402 -152.47607422 76.14526367 C-150.29097293 81.70511341 -148.14082174 87.27432778 -146.0625 92.875 C-142.30427426 84.05602807 -138.84705713 75.1411067 -135.5 66.16015625 C-134.98124999 64.77347532 -134.46228378 63.38687524 -133.94311523 62.00035095 C-132.58853168 58.38121974 -131.23649094 54.76114435 -129.88513184 51.14080811 C-127.72424013 45.35315195 -125.55920777 39.56704309 -123.39456177 33.78079033 C-122.64896479 31.78674826 -121.90433817 29.79234627 -121.15991211 27.79786682 C-119.79943057 24.15490301 -118.43266679 20.51433396 -117.0625 16.875 C-116.82827332 16.2521751 -116.59404663 15.6293502 -116.35272217 14.98765182 C-115.66407802 13.16041862 -114.97079361 11.3349363 -114.27734375 9.50952148 C-113.87507568 8.44853745 -113.47280762 7.38755341 -113.05834961 6.29441833 C-112.0625 3.875 -112.0625 3.875 -111.0625 2.875 C-108.91691173 2.78724395 -106.76845579 2.76804781 -104.62109375 2.77734375 C-103.31591797 2.78056641 -102.01074219 2.78378906 -100.66601562 2.78710938 C-99.2773431 2.79546599 -97.88867123 2.80393095 -96.5 2.8125 C-95.10742344 2.81751334 -93.71484519 2.82207653 -92.32226562 2.82617188 C-88.9023013 2.83800566 -85.48242156 2.8544912 -82.0625 2.875 C-81.7325 4.195 -81.4025 5.515 -81.0625 6.875 C-82.34125 6.99875 -83.62 7.1225 -84.9375 7.25 C-88.41040936 7.56542399 -88.41040936 7.56542399 -91.0625 9.875 C-91.3600374 11.88113608 -91.3600374 11.88113608 -91.30300903 14.21560669 C-91.30575836 15.12708466 -91.30850769 16.03856262 -91.31134033 16.97766113 C-91.30414978 17.98035034 -91.29695923 18.98303955 -91.28955078 20.01611328 C-91.28984283 21.06979095 -91.29013489 22.12346863 -91.29043579 23.20907593 C-91.28903838 26.70457084 -91.27345776 30.19985466 -91.2578125 33.6953125 C-91.25408383 36.11383955 -91.25123617 38.53236811 -91.24923706 40.95089722 C-91.24158908 47.32631579 -91.22193059 53.7016437 -91.1998291 60.07702637 C-91.17939573 66.57868218 -91.17024072 73.0803526 -91.16015625 79.58203125 C-91.13868581 92.34639407 -91.10453584 105.11068951 -91.0625 117.875 C-87.7625 118.205 -84.4625 118.535 -81.0625 118.875 C-80.7325 119.865 -80.4025 120.855 -80.0625 121.875 C-83.44643008 123.56696504 -87.28727791 122.99486549 -91.0078125 122.97265625 C-91.8928244 122.9712413 -92.7778363 122.96982635 -93.68966675 122.96836853 C-96.52231191 122.9627614 -99.35487864 122.95020771 -102.1875 122.9375 C-104.10546761 122.93248592 -106.02343646 122.92792285 -107.94140625 122.92382812 C-112.64846782 122.91278966 -117.3554706 122.89552025 -122.0625 122.875 C-122.0625 121.555 -122.0625 120.235 -122.0625 118.875 C-121.49660156 118.74222656 -120.93070313 118.60945313 -120.34765625 118.47265625 C-119.24744141 118.20775391 -119.24744141 118.20775391 -118.125 117.9375 C-117.02865234 117.67646484 -117.02865234 117.67646484 -115.91015625 117.41015625 C-114.06280102 117.03612431 -114.06280102 117.03612431 -113.0625 115.875 C-112.9672178 112.89201786 -112.93697825 109.93223655 -112.94897461 106.94897461 C-112.94875557 105.54424141 -112.94875557 105.54424141 -112.9485321 104.11112976 C-112.94923163 100.99984461 -112.95702585 97.88861851 -112.96484375 94.77734375 C-112.96670779 92.62642957 -112.96813176 90.47551497 -112.96913147 88.32460022 C-112.97295775 82.65118242 -112.98278898 76.97779005 -112.99383545 71.30438232 C-113.0040472 65.51998234 -113.00862858 59.73557827 -113.01367188 53.95117188 C-113.02441115 42.59243672 -113.04148889 31.23372047 -113.0625 19.875 C-119.09538847 35.4941245 -125.07202102 51.1325015 -130.93988037 66.81439209 C-132.09701277 69.90467103 -133.25748864 72.99367986 -134.41845703 76.08251953 C-137.76800325 85.00352367 -141.10522418 93.92626305 -144.3046875 102.90234375 C-144.76548981 104.1856768 -145.22642056 105.46896375 -145.6875 106.75219727 C-146.49434663 109.00994954 -147.28949784 111.27193167 -148.0703125 113.53881836 C-148.41578125 114.50311768 -148.76125 115.46741699 -149.1171875 116.4609375 C-149.40062012 117.2761084 -149.68405273 118.0912793 -149.97607422 118.93115234 C-151.30921469 121.31642526 -152.55245091 121.90738815 -155.0625 122.875 C-158.23186745 118.13585181 -160.09860988 112.98070488 -162.125 107.6875 C-162.51299271 106.68472015 -162.90098541 105.68194031 -163.30073547 104.64877319 C-164.55919224 101.39257848 -165.81094596 98.13385336 -167.0625 94.875 C-167.92569768 92.6374061 -168.78922409 90.39993899 -169.65307617 88.16259766 C-174.70488543 75.06584432 -179.71425716 61.95328197 -184.66918945 48.81958008 C-187.69913724 40.79518606 -190.83038791 32.81994879 -194.0625 24.875 C-194.91014554 36.59570777 -195.14692002 48.19497351 -194.94140625 59.94140625 C-194.91701375 61.59861982 -194.89317536 63.25584163 -194.86985779 64.91307068 C-194.80792237 69.21196094 -194.73861467 73.51069963 -194.66760254 77.80944824 C-194.59608492 82.22120436 -194.53177263 86.63306542 -194.46679688 91.04492188 C-194.33895728 99.65506433 -194.20330454 108.26505983 -194.0625 116.875 C-191.0925 117.535 -188.1225 118.195 -185.0625 118.875 C-185.0625 120.195 -185.0625 121.515 -185.0625 122.875 C-193.3125 122.875 -201.5625 122.875 -210.0625 122.875 C-210.0625 121.555 -210.0625 120.235 -210.0625 118.875 C-209.42441406 118.75382812 -208.78632813 118.63265625 -208.12890625 118.5078125 C-207.30261719 118.34023438 -206.47632813 118.17265625 -205.625 118 C-204.80128906 117.83757812 -203.97757812 117.67515625 -203.12890625 117.5078125 C-202.10603516 117.19457031 -202.10603516 117.19457031 -201.0625 116.875 C-199.91347584 114.57695168 -199.92731392 113.26283022 -199.90859985 110.70643616 C-199.89999939 109.83295029 -199.89139893 108.95946442 -199.88253784 108.05950928 C-199.87827789 107.09893616 -199.87401794 106.13836304 -199.86962891 105.14868164 C-199.86145142 104.13883713 -199.85327393 103.12899261 -199.84484863 102.08854675 C-199.81997749 98.73742269 -199.80347687 95.38634094 -199.7890625 92.03515625 C-199.78107698 90.32244443 -199.78107698 90.32244443 -199.77293015 88.57513237 C-199.74619495 82.53520249 -199.72681857 76.49529334 -199.71240234 70.45532227 C-199.6957262 64.20248 -199.65092422 57.95016192 -199.6000309 51.69751835 C-199.56645966 46.90123351 -199.55483618 42.10507484 -199.54917526 37.3086834 C-199.54243798 35.00289324 -199.52715232 32.69711209 -199.50328445 30.39143562 C-199.47183898 27.17075276 -199.47156503 23.95150748 -199.47900391 20.73071289 C-199.46259857 19.772164 -199.44619324 18.81361511 -199.42929077 17.82601929 C-199.4522816 15.40406398 -199.50595658 13.23204298 -200.0625 10.875 C-204.44045521 7.0969662 -209.42432031 6.52860203 -215.0625 6.875 C-240.22225466 12.53239116 -262.0268883 29.60240243 -275.88525391 50.97460938 C-291.07173591 75.48966037 -296.05647528 104.39836445 -289.64892578 132.58056641 C-286.57244746 144.617512 -281.68884096 155.44624176 -274.98046875 165.87109375 C-273.50870888 168.17615147 -272.21134438 170.40103354 -271.0625 172.875 C-270.4025 172.875 -269.7425 172.875 -269.0625 172.875 C-269.40694881 170.40233235 -269.40694881 170.40233235 -270.0625 167.875 C-270.7225 167.545 -271.3825 167.215 -272.0625 166.875 C-271.7325 165.885 -271.4025 164.895 -271.0625 163.875 C-268.11860218 162.69744087 -267.16296087 162.84151304 -264.0625 163.875 C-263.42828125 163.71128906 -262.7940625 163.54757812 -262.140625 163.37890625 C-258.566495 162.51224691 -255.54623887 163.88794065 -252.0625 164.875 C-251.36175156 168.028368 -251.0625 170.60224974 -251.0625 173.875 C-250.4025 173.875 -249.7425 173.875 -249.0625 173.875 C-249.25 175.75 -249.25 175.75 -250.0625 177.875 C-252.625 179.125 -252.625 179.125 -255.0625 179.875 C-257.0625 177.875 -257.0625 177.875 -257.1875 174.25 C-257.14625 173.13625 -257.105 172.0225 -257.0625 170.875 C-257.17207031 171.44089844 -257.28164063 172.00679687 -257.39453125 172.58984375 C-257.55308594 173.32332031 -257.71164062 174.05679688 -257.875 174.8125 C-258.02582031 175.54339844 -258.17664063 176.27429688 -258.33203125 177.02734375 C-258.57308594 177.63707031 -258.81414062 178.24679687 -259.0625 178.875 C-260.0525 179.205 -261.0425 179.535 -262.0625 179.875 C-262.7225 178.885 -263.3825 177.895 -264.0625 176.875 C-263.6015625 174.61328125 -263.6015625 174.61328125 -262.6875 172.1875 C-262.39101563 171.37925781 -262.09453125 170.57101562 -261.7890625 169.73828125 C-261.54929687 169.12339844 -261.30953125 168.50851562 -261.0625 167.875 C-263.4689156 170.17763487 -264.77036527 171.46676145 -265.0625 174.875 C-262.40081056 185.43543269 -251.60626509 191.35259033 -242.765625 196.73828125 C-219.20344002 210.58262327 -190.24784125 215.49961198 -163.4609375 208.91015625 C-146.29188173 203.68050133 -132.17121825 196.09258746 -118.0625 184.875 C-117.16015625 184.16601562 -116.2578125 183.45703125 -115.328125 182.7265625 C-99.88947342 170.36671716 -85.88469261 156.54033898 -74.03369141 140.68408203 C-72.1217917 138.16612787 -70.12565864 135.83900109 -67.94433594 133.55200195 C-57.38336342 121.95130992 -57.43249516 111.00323993 -57.8125 95.875 C-57.82450228 93.63543937 -57.83105126 91.39584258 -57.83203125 89.15625 C-57.84608512 83.72714723 -57.9270671 78.30236241 -58.0625 72.875 C-56.7425 73.205 -55.4225 73.535 -54.0625 73.875 C-53.95292969 75.03515625 -53.84335937 76.1953125 -53.73046875 77.390625 C-52.8281853 86.44256545 -51.63910942 95.11452799 -49.0625 103.875 C-46.2474849 101.215954 -44.109889 98.62350749 -42.109375 95.3125 C-41.30922974 94.00091919 -41.30922974 94.00091919 -40.49291992 92.6628418 C-39.93838135 91.742854 -39.38384277 90.82286621 -38.8125 89.875 C-34.06020526 82.08616365 -29.22134864 74.40286675 -24.0625 66.875 C-25.10664062 66.52115234 -25.10664062 66.52115234 -26.171875 66.16015625 C-29.59103824 64.64001476 -32.38699547 62.6047822 -35.3125 60.3125 C-35.88097656 59.86922363 -36.44945312 59.42594727 -37.03515625 58.96923828 C-45.99417941 51.86825181 -55.59201595 43.55365187 -58.0625 31.875 C-59.00460477 21.77273813 -57.2588879 14.70189902 -51.0625 6.6875 C-38.05141012 -7.33090006 -16.1054005 -8.54654545 0 0 Z M-33.0625 4.875 C-36.79142795 9.48569724 -37.72318776 14.47096539 -37.4375 20.30078125 C-35.542151 33.31156243 -26.63981271 41.03591823 -16.578125 48.5390625 C-14.24061244 50.08086051 -14.24061244 50.08086051 -12.07617188 49.66577148 C-9.61437195 48.69901955 -8.83799725 47.71075459 -7.328125 45.55859375 C-6.59613892 44.54091919 -6.59613892 44.54091919 -5.84936523 43.50268555 C-5.08861694 42.4185437 -5.08861694 42.4185437 -4.3125 41.3125 C0.03032141 35.31033982 4.45136462 29.88522966 9.9375 24.875 C10.94206614 23.87958708 11.94356044 22.88102393 12.9375 21.875 C8.15986984 12.88074929 2.64892023 5.75956809 -7.0625 1.875 C-15.44748964 -0.14945811 -26.1387022 -1.14717302 -33.0625 4.875 Z M-21.0625 70.875 C-27.14188171 77.38452664 -31.57113536 85.79926641 -36.1171875 93.41552734 C-36.55675781 94.14980957 -36.99632812 94.8840918 -37.44921875 95.640625 C-37.87638184 96.35541016 -38.30354492 97.07019531 -38.74365234 97.80664062 C-40.04321558 99.84475609 -41.46719359 101.70789196 -42.95703125 103.609375 C-45.28970056 106.60753602 -45.28970056 106.60753602 -45.13671875 109.5859375 C-42.37466615 115.47162049 -34.87447179 119.49737518 -29.0625 121.875 C-19.56615471 124.24485444 -8.55252267 124.44157644 0.01171875 119.375 C3.74869297 116.46425334 5.43694702 113.37665894 6.9375 108.875 C7.76257208 99.79920707 5.51477376 93.24024349 -0.05078125 86.0625 C-4.25266287 81.49346367 -9.18810158 77.69712578 -14.0625 73.875 C-14.78179687 73.28332031 -15.50109375 72.69164062 -16.2421875 72.08203125 C-18.11518861 70.59868256 -18.11518861 70.59868256 -21.0625 70.875 Z " fill="#AD0F0F" transform="translate(327.0625,162.125)"/>
<path d="M0 0 C5.05300293 2.66560462 8.28571096 3.5271295 13.9375 2.875 C14.5975 0.895 15.2575 -1.085 15.9375 -3.125 C16.9275 -2.795 17.9175 -2.465 18.9375 -2.125 C19.93190216 2.6039347 19.90315891 6.96770118 19.5 11.75 C19.44779297 12.43835938 19.39558594 13.12671875 19.34179688 13.8359375 C19.21344902 15.51612758 19.07637775 17.19564749 18.9375 18.875 C19.73414063 18.52566406 20.53078125 18.17632812 21.3515625 17.81640625 C22.94097656 17.13384766 22.94097656 17.13384766 24.5625 16.4375 C25.60664063 15.98503906 26.65078125 15.53257812 27.7265625 15.06640625 C40.92828867 10.16795554 54.19385415 13.38874332 66.7890625 18.39453125 C71.45496308 20.58854654 75.14015224 23.42083101 78.9375 26.875 C79.87529297 27.69291016 79.87529297 27.69291016 80.83203125 28.52734375 C90.15626883 37.16089706 96.36268006 49.91346288 97.17578125 62.58984375 C97.65074558 80.5447733 92.49125554 94.54846279 80.15625 107.80859375 C68.69267265 118.48505928 54.45363369 122.130605 39.15234375 122.04296875 C35.14830877 121.83376644 31.75327957 121.07210732 27.9375 119.875 C28.2675 118.225 28.5975 116.575 28.9375 114.875 C29.91203125 115.11283203 29.91203125 115.11283203 30.90625 115.35546875 C44.31048646 117.65284433 58.28324586 116.38934195 69.875 108.9375 C71.24205746 107.93399516 72.59771157 106.91463216 73.9375 105.875 C74.96875 105.1325 76 104.39 77.0625 103.625 C85.92373427 95.14903679 91.34333676 84.02739918 92.140625 71.74609375 C92.33803043 57.28614621 88.90517 46.49496778 80.6875 34.625 C69.77683429 23.71433429 56.56938061 18.6581426 41.32568359 18.54711914 C33.81609934 18.65561939 26.67021536 20.50864232 19.9375 23.875 C19.62508545 26.58946979 19.42413408 29.21409361 19.3125 31.9375 C19.27382813 32.69611328 19.23515625 33.45472656 19.1953125 34.23632812 C19.10076438 36.11547195 19.01803244 37.99520336 18.9375 39.875 C17.6175 39.545 16.2975 39.215 14.9375 38.875 C14.6075 35.245 14.2775 31.615 13.9375 27.875 C5.96120911 34.16399858 0.1069542 41.88555681 -6.0625 49.875 C-7.3825 48.885 -8.7025 47.895 -10.0625 46.875 C-3.83362385 38.69014031 2.42399953 30.9426444 9.9375 23.875 C10.5975 23.215 11.2575 22.555 11.9375 21.875 C7.15807661 13.01643503 2.38551255 6.84272685 -7.0625 2.875 C-10.17195212 2.26563979 -13.28282422 1.96171026 -16.4375 1.6875 C-17.26894531 1.60564453 -18.10039062 1.52378906 -18.95703125 1.43945312 C-20.99118087 1.24071437 -23.02672949 1.05638416 -25.0625 0.875 C-24.7325 0.215 -24.4025 -0.445 -24.0625 -1.125 C-22.145912 -1.15212153 -20.2292127 -1.17145097 -18.3125 -1.1875 C-16.71148437 -1.20490234 -16.71148437 -1.20490234 -15.078125 -1.22265625 C-12.52881499 -1.14010087 -10.48316409 -0.87117558 -8.0625 -0.125 C-8.0625 -0.785 -8.0625 -1.445 -8.0625 -2.125 C-11.87498426 -2.15387236 -15.6874407 -2.17175492 -19.5 -2.1875 C-20.58861328 -2.19587891 -21.67722656 -2.20425781 -22.79882812 -2.21289062 C-24.35053711 -2.21772461 -24.35053711 -2.21772461 -25.93359375 -2.22265625 C-26.89193115 -2.22789307 -27.85026855 -2.23312988 -28.83764648 -2.23852539 C-31.03535339 -2.3755313 -31.03535339 -2.3755313 -32.0625 -1.125 C-33.72867115 -1.08436168 -35.39638095 -1.082279 -37.0625 -1.125 C-28.20450468 -9.98299532 -9.58716824 -5.08755862 0 0 Z " fill="#A21211" transform="translate(327.0625,162.125)"/>
<path d="M0 0 C1.1171875 3.71875 1.1171875 3.71875 0.0625 6.25 C-0.4634375 7.11625 -0.4634375 7.11625 -1 8 C-0.34 8 0.32 8 1 8 C-1.09023627 15.33283529 -3.56191626 22.46775322 -6.23828125 29.60546875 C-6.64153122 30.68774246 -7.04478119 31.77001617 -7.46025085 32.88508606 C-8.31011522 35.16394842 -9.16152476 37.44223507 -10.0144043 39.7199707 C-11.30180038 43.15891873 -12.58391711 46.59979872 -13.86523438 50.04101562 C-18.10881462 61.41662717 -22.39924887 72.76335011 -27 84 C-27.99 83.34 -28.98 82.68 -30 82 C-27.7845159 74.19903066 -25.12196232 66.6048792 -22.3125 59 C-22.08533295 58.38235779 -21.85816589 57.76471558 -21.62411499 57.12835693 C-14.59448808 38.01894337 -7.28182302 19.01433582 0 0 Z " fill="#A11313" transform="translate(212,174)"/>
<path d="M0 0 C1.32 0.66 2.64 1.32 4 2 C4.33 32.36 4.66 62.72 5 94 C5.33 94 5.66 94 6 94 C6.66 98.95 7.32 103.9 8 109 C12.455 109.99 12.455 109.99 17 111 C17 112.32 17 113.64 17 115 C8.75 115 0.5 115 -8 115 C-8 113.68 -8 112.36 -8 111 C-7.36191406 110.87882812 -6.72382812 110.75765625 -6.06640625 110.6328125 C-5.24011719 110.46523438 -4.41382812 110.29765625 -3.5625 110.125 C-2.73878906 109.96257812 -1.91507812 109.80015625 -1.06640625 109.6328125 C-0.38449219 109.42398438 0.29742187 109.21515625 1 109 C2.15178569 106.69642862 2.12807164 105.39371631 2.13371277 102.83143616 C2.13797775 101.95795029 2.14224274 101.08446442 2.14663696 100.18450928 C2.14595718 98.7436496 2.14595718 98.7436496 2.14526367 97.27368164 C2.14862228 96.26383713 2.1519809 95.25399261 2.15544128 94.21354675 C2.16497051 90.86240421 2.16689535 87.51131152 2.16796875 84.16015625 C2.17117982 81.83849568 2.17454378 79.51683531 2.17805481 77.19517517 C2.18405092 72.32355276 2.1858942 67.45194811 2.18530273 62.58032227 C2.18520105 56.32767419 2.19885728 50.07513952 2.21607494 43.82251835 C2.22717481 39.02623468 2.22922257 34.2299786 2.22869301 29.4336834 C2.22987602 27.12793016 2.23431563 24.82217627 2.24202538 22.51643562 C2.25178517 19.2961131 2.24896313 16.07603913 2.24291992 12.85571289 C2.25134918 11.41788956 2.25134918 11.41788956 2.25994873 9.95101929 C2.25575424 9.07471359 2.25155975 8.1984079 2.24723816 7.29554749 C2.24805531 6.15319437 2.24805531 6.15319437 2.24888897 4.9877634 C2.11054451 2.68153626 2.11054451 2.68153626 0 0 Z " fill="#A91E20" transform="translate(125,170)"/>
<path d="M0 0 C0.33 0 0.66 0 1 0 C1 30.69 1 61.38 1 93 C-2.34776033 89.65223967 -2.35265055 88.59277538 -2.39547729 84.06436157 C-2.38783356 83.2554245 -2.38018982 82.44648743 -2.37231445 81.61303711 C-2.37596512 80.75749741 -2.37961578 79.9019577 -2.38337708 79.02049255 C-2.39149099 76.18924179 -2.37786664 73.35856178 -2.36328125 70.52734375 C-2.36276279 68.56344096 -2.36327994 66.59953765 -2.36479187 64.63563538 C-2.36470211 60.51897438 -2.35426444 56.40250908 -2.33618164 52.28588867 C-2.31347947 47.00055965 -2.31295268 41.71551631 -2.31969929 36.43015194 C-2.3230352 32.37506048 -2.31641656 28.32003456 -2.30657005 24.26495552 C-2.30271236 22.31564235 -2.30157218 20.36632189 -2.3031559 18.41700554 C-2.30352538 15.69705092 -2.29094003 12.97746741 -2.2746582 10.25756836 C-2.27713562 9.44660706 -2.27961304 8.63564575 -2.28216553 7.80010986 C-2.22874255 2.22874255 -2.22874255 2.22874255 0 0 Z " fill="#CA0C0D" transform="translate(131,176)"/>
<path d="M0 0 C2.88916016 -0.34057617 2.88916016 -0.34057617 6.5390625 -0.29296875 C8.49199219 -0.2784668 8.49199219 -0.2784668 10.484375 -0.26367188 C11.86458923 -0.23860388 13.24479756 -0.21320902 14.625 -0.1875 C16.01300663 -0.17245517 17.40102867 -0.15876641 18.7890625 -0.14648438 C22.19309509 -0.1110257 25.59635622 -0.06160298 29 0 C29.495 1.98 29.495 1.98 30 4 C28.72125 4.12375 27.4425 4.2475 26.125 4.375 C22.65209064 4.69042399 22.65209064 4.69042399 20 7 C19.6868532 8.9718232 19.6868532 8.9718232 19.7215271 11.26467896 C19.71036362 12.15932861 19.69920013 13.05397827 19.68769836 13.97573853 C19.68553818 14.95972626 19.68337799 15.94371399 19.68115234 16.95751953 C19.67110672 17.99169006 19.6610611 19.0258606 19.65071106 20.09136963 C19.61973221 23.52184474 19.60280311 26.95224131 19.5859375 30.3828125 C19.56723768 32.75650719 19.54766518 35.13019516 19.5272522 37.50387573 C19.47579972 43.76084435 19.4362443 50.01783455 19.39910889 56.27490234 C19.35915129 62.65597937 19.30802145 69.03696561 19.2578125 75.41796875 C19.16089799 87.94524769 19.07616391 100.47257861 19 113 C18.67 113 18.34 113 18 113 C17.846164 98.95315155 17.69819661 84.90625188 17.5570364 70.8592701 C17.49132356 64.33730036 17.42370871 57.81536171 17.35180664 51.29345703 C17.28253786 45.00414814 17.21818739 38.7148067 17.15730476 32.42541122 C17.13315521 30.02112869 17.10720758 27.61686355 17.07946587 25.21261978 C17.04103062 21.85547864 17.00888297 18.49833356 16.97827148 15.14111328 C16.96532547 14.13842407 16.95237946 13.13573486 16.93904114 12.10266113 C16.93200165 11.19118317 16.92496216 10.2797052 16.91770935 9.34060669 C16.90941321 8.54602114 16.90111708 7.75143559 16.89256954 6.93277168 C17 5 17 5 18 3 C12.72 2.67 7.44 2.34 2 2 C2.66 2.66 3.32 3.32 4 4 C4 4.99 4 5.98 4 7 C2.68 7 1.36 7 0 7 C-0.33 7.66 -0.66 8.32 -1 9 C-1.66 9 -2.32 9 -3 9 C-2.5020163 5.26512223 -2.12508244 3.18762365 0 0 Z " fill="#971616" transform="translate(216,165)"/>
<path d="M0 0 C0.5 2 0.5 2 1 4 C1.17448795 4.62173316 1.34897591 5.24346632 1.52875137 5.88403988 C2.00837881 8.0376218 2.1163171 9.90242089 2.10247803 12.10536194 C2.09977402 12.91428391 2.09707001 13.72320587 2.09428406 14.55664062 C2.08605118 15.43521729 2.0778183 16.31379395 2.06933594 17.21899414 C2.06454727 18.15110214 2.05975861 19.08321014 2.05482483 20.04356384 C2.03714243 23.12416425 2.01140008 26.20462443 1.984375 29.28515625 C1.96768366 31.42459593 1.95102146 33.56403583 1.93438721 35.70347595 C1.89792191 40.18655808 1.85669223 44.66957088 1.81298828 49.15258789 C1.75791722 54.9051221 1.72143235 60.65761544 1.68935776 66.41031742 C1.66153943 70.82754046 1.62048806 75.24456858 1.57575226 79.6616497 C1.55652347 81.78314806 1.54224471 83.90469714 1.53295135 86.02626228 C1.51867087 88.9879694 1.48579718 91.94890978 1.44824219 94.91040039 C1.44810623 95.79100128 1.44797028 96.67160217 1.4478302 97.57888794 C1.34327075 103.60647494 1.34327075 103.60647494 -0.52534103 105.74864864 C-1.01197849 106.16159459 -1.49861595 106.57454054 -2 107 C-2.66 106.67 -3.32 106.34 -4 106 C-3.01 105.01 -3.01 105.01 -2 104 C-1.70280889 102.07777779 -1.70280889 102.07777779 -1.75949097 99.84921265 C-1.75674164 98.97980545 -1.75399231 98.11039825 -1.75115967 97.21464539 C-1.75835022 96.25870987 -1.76554077 95.30277435 -1.77294922 94.31787109 C-1.77265717 93.31296127 -1.77236511 92.30805145 -1.77206421 91.27268982 C-1.77346144 87.93951893 -1.78904118 84.60656951 -1.8046875 81.2734375 C-1.80841623 78.96701174 -1.81126386 76.6605844 -1.81326294 74.35415649 C-1.82091041 68.27465464 -1.84056846 62.19524789 -1.8626709 56.11578369 C-1.88310537 49.91574388 -1.89225952 43.71568875 -1.90234375 37.515625 C-1.9238133 25.34370815 -1.95796265 13.17186197 -2 1 C-1.34 0.67 -0.68 0.34 0 0 Z " fill="#9A1612" transform="translate(216,174)"/>
<path d="M0 0 C0 1.65 0 3.3 0 5 C0.66 5.33 1.32 5.66 2 6 C2.66 4.35 3.32 2.7 4 1 C4.99 1 5.98 1 7 1 C6.85936865 3.29199177 6.71234057 5.58359186 6.5625 7.875 C6.48128906 9.15117187 6.40007812 10.42734375 6.31640625 11.7421875 C6 15 6 15 5 17 C3.68 16.67 2.36 16.34 1 16 C1 14.02 1 12.04 1 10 C0.01 10 -0.98 10 -2 10 C-1.95875 10.78375 -1.9175 11.5675 -1.875 12.375 C-2 15 -2 15 -4 17 C-4.99 17 -5.98 17 -7 17 C-7.2226746 15.56465159 -7.42761906 14.12654475 -7.625 12.6875 C-7.74101562 11.88699219 -7.85703125 11.08648437 -7.9765625 10.26171875 C-8 8 -8 8 -6 5 C-6.99 5 -7.98 5 -9 5 C-8.6875 3.0625 -8.6875 3.0625 -8 1 C-5.07175348 0.02391783 -3.04386724 -0.08226668 0 0 Z " fill="#A11515" transform="translate(149,325)"/>
<path d="M0 0 C2.3125 0.5 2.3125 0.5 4.3125 2.5 C4.58241906 5.18839385 4.39987357 7.79141936 4.3125 10.5 C4.9725 10.83 5.6325 11.16 6.3125 11.5 C5.16076645 13.96800047 4.26466435 15.54783565 2.3125 17.5 C0.1875 17.125 0.1875 17.125 -1.6875 16.5 C-1.6875 14.52 -1.6875 12.54 -1.6875 10.5 C-2.6775 10.5 -3.6675 10.5 -4.6875 10.5 C-4.6875 12.15 -4.6875 13.8 -4.6875 15.5 C-6.6675 16.49 -6.6675 16.49 -8.6875 17.5 C-9.6875 16.5 -9.6875 16.5 -9.75 13.9375 C-9.729375 13.133125 -9.70875 12.32875 -9.6875 11.5 C-10.3475 11.17 -11.0075 10.84 -11.6875 10.5 C-11.3575 9.51 -11.0275 8.52 -10.6875 7.5 C-9.6975 7.17 -8.7075 6.84 -7.6875 6.5 C-6.90375 5.489375 -6.12 4.47875 -5.3125 3.4375 C-2.6875 0.5 -2.6875 0.5 0 0 Z " fill="#A41314" transform="translate(181.6875,324.5)"/>
<path d="M0 0 C0 1.65 0 3.3 0 5 C0.66 5 1.32 5 2 5 C3.6446674 2.53673288 3.6446674 2.53673288 5 0 C5.66 0.33 6.32 0.66 7 1 C6.85764543 2.72945653 6.71095618 4.45855654 6.5625 6.1875 C6.48128906 7.15042969 6.40007812 8.11335938 6.31640625 9.10546875 C6.02333849 11.78649602 5.57296246 14.3662986 5 17 C3.68 16.67 2.36 16.34 1 16 C1 14.02 1 12.04 1 10 C0.01 10 -0.98 10 -2 10 C-2.33 11.98 -2.66 13.96 -3 16 C-4.32 16.33 -5.64 16.66 -7 17 C-7.2226746 15.56465159 -7.42761906 14.12654475 -7.625 12.6875 C-7.74101562 11.88699219 -7.85703125 11.08648437 -7.9765625 10.26171875 C-8 8 -8 8 -6 5 C-6.99 5 -7.98 5 -9 5 C-8.6875 3.0625 -8.6875 3.0625 -8 1 C-5.07175348 0.02391783 -3.04386724 -0.08226668 0 0 Z " fill="#A01716" transform="translate(315,325)"/>
<path d="M0 0 C1.32 0.33 2.64 0.66 4 1 C4.10957031 2.16015625 4.21914063 3.3203125 4.33203125 4.515625 C5.2343147 13.56756545 6.42339058 22.23952799 9 31 C8.34 30.67 7.68 30.34 7 30 C7 29.34 7 28.68 7 28 C6.34 28 5.68 28 5 28 C3.375 26.5 3.375 26.5 2 25 C2.01047363 25.59538574 2.02094727 26.19077148 2.03173828 26.80419922 C2.07323949 29.49442343 2.09930704 32.18458037 2.125 34.875 C2.15013672 36.28072266 2.15013672 36.28072266 2.17578125 37.71484375 C2.18222656 38.61074219 2.18867188 39.50664062 2.1953125 40.4296875 C2.20578613 41.25710449 2.21625977 42.08452148 2.22705078 42.93701172 C2 45 2 45 0 47 C0 31.49 0 15.98 0 0 Z " fill="#9B1916" transform="translate(269,235)"/>
<path d="M0 0 C0.33 0.66 0.66 1.32 1 2 C1.99 2.33 2.98 2.66 4 3 C3.39414062 3.8971875 2.78828125 4.794375 2.1640625 5.71875 C-2.94663804 13.32049262 -7.9302822 20.97727575 -12.68701172 28.80664062 C-14.56942524 31.87128747 -16.39269101 34.52820216 -19 37 C-19.33 35.68 -19.66 34.36 -20 33 C-20 33.66 -20 34.32 -20 35 C-20.66 34.67 -21.32 34.34 -22 34 C-19.65048568 30.20543242 -17.29452738 26.41490454 -14.9375 22.625 C-14.28072266 21.56410156 -13.62394531 20.50320312 -12.94726562 19.41015625 C-8.82625469 12.79217809 -4.54777003 6.33265228 0 0 Z " fill="#A01111" transform="translate(302,231)"/>
<path d="M0 0 C1.15423462 0.10610596 1.15423462 0.10610596 2.33178711 0.21435547 C10.75804453 0.93290781 19.10828378 1.15179625 27.5625 1.125 C28.78646484 1.12886719 30.01042969 1.13273437 31.27148438 1.13671875 C38.89754585 1.1286016 46.41256548 0.76810418 54 0 C53 2 53 2 51.25 2.81640625 C34.51361286 8.36614574 17.04016122 5.92342797 0 3 C0 2.01 0 1.02 0 0 Z " fill="#A70E0C" transform="translate(111,373)"/>
<path d="M0 0 C1.37432457 3.81756824 0.67975039 7.07255329 0 11 C0.66 10.67 1.32 10.34 2 10 C2.68931344 7.65092125 2.68931344 7.65092125 3.125 4.9375 C3.37636719 3.55884766 3.37636719 3.55884766 3.6328125 2.15234375 C3.75398438 1.44207031 3.87515625 0.73179687 4 0 C5.32 0 6.64 0 8 0 C8 3.3 8 6.6 8 10 C8.99 10 9.98 10 11 10 C10.8125 11.875 10.8125 11.875 10 14 C7.625 15.3125 7.625 15.3125 5 16 C4.01 15.67 3.02 15.34 2 15 C1.154375 15.185625 0.30875 15.37125 -0.5625 15.5625 C-1.366875 15.706875 -2.17125 15.85125 -3 16 C-5 14 -5 14 -5.1953125 11.6171875 C-5.17210937 10.71226562 -5.14890625 9.80734375 -5.125 8.875 C-5.10695313 7.96492188 -5.08890625 7.05484375 -5.0703125 6.1171875 C-5.04710937 5.41851562 -5.02390625 4.71984375 -5 4 C-5.66 3.67 -6.32 3.34 -7 3 C-6.67 2.01 -6.34 1.02 -6 0 C-3.50907189 -1.24546405 -2.58919267 -0.7767578 0 0 Z " fill="#A21011" transform="translate(419,326)"/>
<path d="M0 0 C0.99 0.33 1.98 0.66 3 1 C4.99961564 1.03920815 7.00049364 1.04443347 9 1 C9.66 2.32 10.32 3.64 11 5 C10.360625 5.433125 9.72125 5.86625 9.0625 6.3125 C6.73253997 7.91239177 6.73253997 7.91239177 6 11 C5.01 11 4.02 11 3 11 C3.33 11.66 3.66 12.32 4 13 C7.465 12.505 7.465 12.505 11 12 C11 12.99 11 13.98 11 15 C8.09476827 17.39254378 6.60199763 18.03541163 2.8125 17.8125 C0 17 0 17 -2 15 C-2.01171875 12.5390625 -2.01171875 12.5390625 -1.6875 9.625 C-1.58824219 8.66851562 -1.48898438 7.71203125 -1.38671875 6.7265625 C-1.05934408 4.41840573 -0.62199296 2.2434276 0 0 Z " fill="#951616" transform="translate(203,324)"/>
<path d="M0 0 C1.32 0.66 2.64 1.32 4 2 C4 1.34 4 0.68 4 0 C5.32 0.33 6.64 0.66 8 1 C5.65276062 3.68475092 3.43528366 4.84717014 0.125 6.125 C-0.71804688 6.45757812 -1.56109375 6.79015625 -2.4296875 7.1328125 C-8.32374985 9.12138673 -13.89410872 9.18305271 -20.0625 9.1875 C-20.96033203 9.19974609 -21.85816406 9.21199219 -22.78320312 9.22460938 C-23.65009766 9.22654297 -24.51699219 9.22847656 -25.41015625 9.23046875 C-26.58783569 9.23663208 -26.58783569 9.23663208 -27.78930664 9.24291992 C-30 9 -30 9 -34 7 C-26.08 7 -18.16 7 -10 7 C-10 6.01 -10 5.02 -10 4 C-16.93 4 -23.86 4 -31 4 C-31 3.67 -31 3.34 -31 3 C-29.35451172 2.90912109 -29.35451172 2.90912109 -27.67578125 2.81640625 C-26.22134346 2.73195502 -24.76691695 2.64730934 -23.3125 2.5625 C-22.59126953 2.52318359 -21.87003906 2.48386719 -21.12695312 2.44335938 C-17.33292718 2.21814322 -13.71348508 1.87160695 -10 1 C-9.67 1.66 -9.34 2.32 -9 3 C-8.4225 2.855625 -7.845 2.71125 -7.25 2.5625 C-5.77443652 2.19360913 -4.29523641 1.83891118 -2.8125 1.5 C-0.99436859 1.15890376 -0.99436859 1.15890376 0 0 Z " fill="#9D1514" transform="translate(334,282)"/>
<path d="M0 0 C2.45734495 1.31058398 2.97883498 2.38618536 3.875 5 C3.875 12.96428571 3.875 12.96428571 1.125 15.8125 C-1.54715465 17.22280384 -3.14339446 17.39231652 -6.125 17 C-6.785 16.34 -7.445 15.68 -8.125 15 C-7.875 11.4375 -7.875 11.4375 -7.125 8 C-6.465 7.67 -5.805 7.34 -5.125 7 C-5.455 6.01 -5.785 5.02 -6.125 4 C-2.73106061 0 -2.73106061 0 0 0 Z M-4.125 8 C-4.125 9.32 -4.125 10.64 -4.125 12 C-3.135 11.67 -2.145 11.34 -1.125 11 C-2.115 10.01 -3.105 9.02 -4.125 8 Z " fill="#991516" transform="translate(287.125,325)"/>
<path d="M0 0 C0.33 1.65 0.66 3.3 1 5 C-1.31 5.66 -3.62 6.32 -6 7 C-6 8.65 -6 10.3 -6 12 C-5.236875 11.835 -4.47375 11.67 -3.6875 11.5 C-1 11 -1 11 2 11 C1.0518738 13.37031549 0.31103322 14.76672508 -1.75 16.3125 C-4.80988219 17.247464 -6.93231714 16.80026509 -10 16 C-12 14 -12 14 -12.01171875 11.9765625 C-11.85123047 10.81253906 -11.85123047 10.81253906 -11.6875 9.625 C-11.58824219 8.85414063 -11.48898438 8.08328125 -11.38671875 7.2890625 C-11.02612969 5.15466662 -10.55839834 3.09041429 -10 1 C-6.59437148 0.22157062 -3.49234244 -0.09978121 0 0 Z " fill="#9D1512" transform="translate(126,325)"/>
<path d="M0 0 C0.62003906 0.18175781 1.24007812 0.36351562 1.87890625 0.55078125 C4.90878411 1.41079025 7.9515238 2.20846583 11 3 C12.02996094 3.28617187 13.05992188 3.57234375 14.12109375 3.8671875 C31.37271589 8.05544259 50.89065218 7.73759559 68 3 C69.33294619 2.66512189 70.66610138 2.33106399 72 2 C71.67 3.32 71.34 4.64 71 6 C71.99 6.495 71.99 6.495 73 7 C71.27318563 7.50806447 69.54342021 8.00610467 67.8125 8.5 C66.84957031 8.7784375 65.88664062 9.056875 64.89453125 9.34375 C62.14654124 9.96677608 59.80401584 10.12302812 57 10 C59.91765 8.0549 61.62537285 7.54723683 65 7 C64.37270996 7.07001221 63.74541992 7.14002441 63.09912109 7.2121582 C55.26463516 8.013171 47.49654796 8.18338308 39.625 8.1875 C37.78808594 8.20586914 37.78808594 8.20586914 35.9140625 8.22460938 C27.76266594 8.23756181 20.01454936 7.48246485 12 6 C12 6.66 12 7.32 12 8 C9.03 7.505 9.03 7.505 6 7 C7.32 6.67 8.64 6.34 10 6 C10 5.34 10 4.68 10 4 C8.906875 3.855625 7.81375 3.71125 6.6875 3.5625 C3 3 3 3 0 2 C0 1.34 0 0.68 0 0 Z " fill="#93130E" transform="translate(99,367)"/>
<path d="M0 0 C3.63 0.66 7.26 1.32 11 2 C11.495 3.485 11.495 3.485 12 5 C8.61606992 6.69196504 4.77522209 6.11986549 1.0546875 6.09765625 C0.1696756 6.0962413 -0.7153363 6.09482635 -1.62716675 6.09336853 C-4.45981191 6.0877614 -7.29237864 6.07520771 -10.125 6.0625 C-12.04296761 6.05748592 -13.96093646 6.05292285 -15.87890625 6.04882812 C-20.58596782 6.03778966 -25.2929706 6.02052025 -30 6 C-30 4.68 -30 3.36 -30 2 C-24.25 1.875 -24.25 1.875 -22 3 C-20.26131256 3.15266612 -18.51752499 3.24932596 -16.7734375 3.31640625 C-15.7421875 3.35830078 -14.7109375 3.40019531 -13.6484375 3.44335938 C-12.56820312 3.48267578 -11.48796875 3.52199219 -10.375 3.5625 C-8.74304688 3.62727539 -8.74304688 3.62727539 -7.078125 3.69335938 C-4.3855483 3.7996453 -1.69287747 3.90168057 1 4 C0.67 2.68 0.34 1.36 0 0 Z " fill="#961814" transform="translate(235,279)"/>
<path d="M0 0 C1.32 0.33 2.64 0.66 4 1 C3.95875 2.27875 3.9175 3.5575 3.875 4.875 C3.85842217 10.08872856 4.81688642 14.94007672 6 20 C3 20 3 20 1.02734375 18.13671875 C0.33769531 17.32847656 -0.35195313 16.52023437 -1.0625 15.6875 C-1.75472656 14.88699219 -2.44695313 14.08648437 -3.16015625 13.26171875 C-7 8.54140127 -7 8.54140127 -7 5 C-4.525 5.495 -4.525 5.495 -2 6 C-2 6.66 -2 7.32 -2 8 C-1.34 8 -0.68 8 0 8 C0 5.36 0 2.72 0 0 Z " fill="#AA0E0F" transform="translate(58,327)"/>
<path d="M0 0 C0.89203125 0.01804687 1.7840625 0.03609375 2.703125 0.0546875 C3.71632813 0.08949219 3.71632813 0.08949219 4.75 0.125 C4.75 1.115 4.75 2.105 4.75 3.125 C3.1 3.455 1.45 3.785 -0.25 4.125 C-0.29898437 4.89585937 -0.34796875 5.66671875 -0.3984375 6.4609375 C-0.47320312 7.46382813 -0.54796875 8.46671875 -0.625 9.5 C-0.69460938 10.49773437 -0.76421875 11.49546875 -0.8359375 12.5234375 C-1.25 15.125 -1.25 15.125 -3.25 17.125 C-4.24 17.125 -5.23 17.125 -6.25 17.125 C-6.39285714 8.55357143 -6.39285714 8.55357143 -5.25 5.125 C-6.57 5.125 -7.89 5.125 -9.25 5.125 C-9.25 4.135 -9.25 3.145 -9.25 2.125 C-6.03817851 0.21891902 -3.71117397 -0.09766247 0 0 Z " fill="#A61415" transform="translate(368.25,324.875)"/>
<path d="M0 0 C0.98484375 0.01804687 1.9696875 0.03609375 2.984375 0.0546875 C4.10585938 0.08949219 4.10585938 0.08949219 5.25 0.125 C4.5 2.0625 4.5 2.0625 3.25 4.125 C1.93 4.455 0.61 4.785 -0.75 5.125 C-1.41 8.755 -2.07 12.385 -2.75 16.125 C-4.07 16.455 -5.39 16.785 -6.75 17.125 C-6.89285714 8.55357143 -6.89285714 8.55357143 -5.75 5.125 C-7.07 5.125 -8.39 5.125 -9.75 5.125 C-9.75 4.135 -9.75 3.145 -9.75 2.125 C-6.40060119 0.09941119 -3.88037449 -0.09238987 0 0 Z " fill="#A3100C" transform="translate(395.75,324.875)"/>
<path d="M0 0 C2.97 0 5.94 0 9 0 C9 0.66 9 1.32 9 2 C10.26457031 1.91621094 11.52914063 1.83242188 12.83203125 1.74609375 C14.4921684 1.64292138 16.15232575 1.54007369 17.8125 1.4375 C18.64587891 1.38142578 19.47925781 1.32535156 20.33789062 1.26757812 C21.14033203 1.21923828 21.94277344 1.17089844 22.76953125 1.12109375 C23.50792236 1.0739624 24.24631348 1.02683105 25.00708008 0.97827148 C27 1 27 1 30 2 C30 2.99 30 3.98 30 5 C25.93870906 5.25553687 21.87624164 5.47479727 17.8125 5.6875 C16.66201172 5.76033203 15.51152344 5.83316406 14.32617188 5.90820312 C13.21435547 5.96298828 12.10253906 6.01777344 10.95703125 6.07421875 C9.42526245 6.16062622 9.42526245 6.16062622 7.86254883 6.2487793 C4.47163145 5.95408038 2.65949775 5.10349031 0 3 C0 2.01 0 1.02 0 0 Z " fill="#B10E0E" transform="translate(294,284)"/>
<path d="M0 0 C1.32 0 2.64 0 4 0 C4 0.66 4 1.32 4 2 C7.465 1.505 7.465 1.505 11 1 C11 2.65 11 4.3 11 6 C7 6 7 6 4 5 C3.67 6.98 3.34 8.96 3 11 C1.68 11.33 0.36 11.66 -1 12 C-1.2226746 10.56465159 -1.42761906 9.12654475 -1.625 7.6875 C-1.74101562 6.88699219 -1.85703125 6.08648437 -1.9765625 5.26171875 C-2 3 -2 3 0 0 Z " fill="#A51211" transform="translate(309,330)"/>
<path d="M0 0 C0.99 0.33 1.98 0.66 3 1 C2.38487182 6.00890086 1.7282448 11.00632136 1 16 C-0.9375 16.5625 -0.9375 16.5625 -3 17 C-3.33 16.67 -3.66 16.34 -4 16 C-3.9553293 10.06996512 -3.10921896 5.13697045 0 0 Z " fill="#931516" transform="translate(96,325)"/>
<path d="M0 0 C0.66 0.33 1.32 0.66 2 1 C1.52013969 6.56890517 0.70084819 11.67067568 -1 17 C-2.32 16.34 -3.64 15.68 -5 15 C-4.05660377 4.05660377 -4.05660377 4.05660377 0 0 Z " fill="#A41210" transform="translate(342,325)"/>
<path d="M0 0 C0.33333333 1.33333333 0.66666667 2.66666667 1 4 C1.1848999 4.61439941 1.3697998 5.22879883 1.56030273 5.86181641 C2.05163421 8.25108962 1.91010781 10.04596317 1.59765625 12.4609375 C0.90586847 18.5082509 0.66282686 24.54486857 0.4375 30.625 C0.39431641 31.72457031 0.35113281 32.82414062 0.30664062 33.95703125 C0.20173594 36.63792882 0.09957274 39.31890001 0 42 C-0.33 42 -0.66 42 -1 42 C-1.33 28.47 -1.66 14.94 -2 1 C-1.34 0.67 -0.68 0.34 0 0 Z " fill="#920C07" transform="translate(216,174)"/>
<path d="M0 0 C4.56922391 4.2620492 5.82282659 8.70147031 6.29296875 14.80078125 C6.51511354 22.0362327 6.29558249 28.40883503 3 35 C2.67 35 2.34 35 2 35 C1.95758277 32.66705225 1.95907063 30.33297433 2 28 C2.33 27.67 2.66 27.34 3 27 C3.51300699 17.60802586 3.88361926 8.73814333 0 0 Z " fill="#941616" transform="translate(347,240)"/>
<path d="M0 0 C7.26 0.33 14.52 0.66 22 1 C18.02927942 4.97072058 15.37996937 4.68243826 9.9609375 5.00390625 C6.55758794 4.99941634 4.011188 4.62766919 1 3 C0.67 2.01 0.34 1.02 0 0 Z " fill="#AA0D0D" transform="translate(356,279)"/>
<path d="M0 0 C0.33 0 0.66 0 1 0 C1.33 1.98 1.66 3.96 2 6 C6.455 6.99 6.455 6.99 11 8 C11 9.32 11 10.64 11 12 C4.4 12 -2.2 12 -9 12 C-9 11.67 -9 11.34 -9 11 C-5.04 10.34 -1.08 9.68 3 9 C2.01 8.34 1.02 7.68 0 7 C-0.1875 3.375 -0.1875 3.375 0 0 Z " fill="#981215" transform="translate(131,273)"/>
<path d="M0 0 C0.66 0 1.32 0 2 0 C-0.07042054 7.60837466 -2.85830477 14.7728592 -6 22 C-7.32 22 -8.64 22 -10 22 C-10 21.01 -10 20.02 -10 19 C-9.34 19 -8.68 19 -8 19 C-7.7525 17.72125 -7.505 16.4425 -7.25 15.125 C-6.70703125 12.89453125 -6.70703125 12.89453125 -6 11 C-3.9375 9.8125 -3.9375 9.8125 -2 9 C-1.23870425 6.61098043 -1.23870425 6.61098043 -1 4 C-0.67516582 2.66457061 -0.3449145 1.33038449 0 0 Z " fill="#9B1514" transform="translate(181,262)"/>
<path d="M0 0 C2.15478516 -0.34057617 2.15478516 -0.34057617 4.7890625 -0.29296875 C5.73007813 -0.28330078 6.67109375 -0.27363281 7.640625 -0.26367188 C9.11789063 -0.2259668 9.11789063 -0.2259668 10.625 -0.1875 C12.11386719 -0.16719727 12.11386719 -0.16719727 13.6328125 -0.14648438 C16.08908072 -0.11105743 18.54427285 -0.06166196 21 0 C21 0.33 21 0.66 21 1 C11.595 1.495 11.595 1.495 2 2 C2.66 2.66 3.32 3.32 4 4 C4 4.99 4 5.98 4 7 C2.68 7 1.36 7 0 7 C-0.33 7.66 -0.66 8.32 -1 9 C-1.66 9 -2.32 9 -3 9 C-2.5020163 5.26512223 -2.12508244 3.18762365 0 0 Z " fill="#951414" transform="translate(216,165)"/>
<path d="M0 0 C0.98484375 0.01804687 1.9696875 0.03609375 2.984375 0.0546875 C4.10585938 0.08949219 4.10585938 0.08949219 5.25 0.125 C4.4140625 2.078125 4.4140625 2.078125 3.25 4.125 C0.625 4.875 0.625 4.875 -1.75 5.125 C-1.75 4.135 -1.75 3.145 -1.75 2.125 C-2.41 2.125 -3.07 2.125 -3.75 2.125 C-3.75 2.785 -3.75 3.445 -3.75 4.125 C-5.73 4.455 -7.71 4.785 -9.75 5.125 C-9.75 4.135 -9.75 3.145 -9.75 2.125 C-6.40060119 0.09941119 -3.88037449 -0.09238987 0 0 Z " fill="#911816" transform="translate(395.75,324.875)"/>
<path d="M0 0 C0.66 0 1.32 0 2 0 C2.33 1.98 2.66 3.96 3 6 C2.34 6 1.68 6 1 6 C1 11.61 1 17.22 1 23 C0.34 22.67 -0.32 22.34 -1 22 C-1.02716824 19.45826023 -1.04691969 16.91681585 -1.0625 14.375 C-1.07087891 13.66214844 -1.07925781 12.94929688 -1.08789062 12.21484375 C-1.10710296 8.02655562 -0.8267327 4.1271538 0 0 Z " fill="#B4070A" transform="translate(32,254)"/>
<path d="M0 0 C0 0.66 0 1.32 0 2 C-0.66 2 -1.32 2 -2 2 C-2 2.66 -2 3.32 -2 4 C-5.4019487 6.09350689 -8.05272412 6.17942163 -12 6 C-11.8125 4.125 -11.8125 4.125 -11 2 C-7.3382625 -0.09242143 -4.15467129 -0.19324053 0 0 Z " fill="#A9100F" transform="translate(182,367)"/>
<path d="M0 0 C0.33 0 0.66 0 1 0 C1 7.59 1 15.18 1 23 C0.67 23 0.34 23 0 23 C-0.33 20.03 -0.66 17.06 -1 14 C-1.33 14 -1.66 14 -2 14 C-2.05389087 12.04196493 -2.09274217 10.08351091 -2.125 8.125 C-2.14820313 7.03445312 -2.17140625 5.94390625 -2.1953125 4.8203125 C-2 2 -2 2 0 0 Z " fill="#BC0A09" transform="translate(131,176)"/>
<path d="M0 0 C3.21880117 3.7935871 5.6163187 7.65829477 8 12 C6.68 11.67 5.36 11.34 4 11 C3.67 11.66 3.34 12.32 3 13 C1.35 10.03 -0.3 7.06 -2 4 C-1.34 4 -0.68 4 0 4 C0 2.68 0 1.36 0 0 Z " fill="#9C1719" transform="translate(47,321)"/>
<path d="M0 0 C0.33 0 0.66 0 1 0 C1 5.28 1 10.56 1 16 C-0.32 15.67 -1.64 15.34 -3 15 C-3.33 11.37 -3.66 7.74 -4 4 C-3.34 4 -2.68 4 -2 4 C-1.67 4.99 -1.34 5.98 -1 7 C-0.67 4.69 -0.34 2.38 0 0 Z " fill="#A21D1B" transform="translate(345,186)"/>
<path d="M0 0 C0.89203125 0.01804687 1.7840625 0.03609375 2.703125 0.0546875 C3.71632813 0.08949219 3.71632813 0.08949219 4.75 0.125 C4.75 1.115 4.75 2.105 4.75 3.125 C3.1 3.455 1.45 3.785 -0.25 4.125 C-0.25 3.465 -0.25 2.805 -0.25 2.125 C-2.72266765 2.46944881 -2.72266765 2.46944881 -5.25 3.125 C-5.58 3.785 -5.91 4.445 -6.25 5.125 C-7.24 5.125 -8.23 5.125 -9.25 5.125 C-9.25 4.135 -9.25 3.145 -9.25 2.125 C-6.03817851 0.21891902 -3.71117397 -0.09766247 0 0 Z " fill="#8C1818" transform="translate(368.25,324.875)"/>
<path d="M0 0 C0 3.90838866 -1.50567876 5.11594107 -4 8 C-3.34 8.33 -2.68 8.66 -2 9 C-3.65 10.32 -5.3 11.64 -7 13 C-7 12.34 -7 11.68 -7 11 C-7.66 11 -8.32 11 -9 11 C-9.33 11.99 -9.66 12.98 -10 14 C-10.66 13.67 -11.32 13.34 -12 13 C-10.56354149 11.39490066 -9.12579294 9.79095576 -7.6875 8.1875 C-6.88699219 7.29417969 -6.08648437 6.40085938 -5.26171875 5.48046875 C-3.54775419 3.60073214 -1.82122396 1.77407253 0 0 Z " fill="#9A1414" transform="translate(336,187)"/>
<path d="M0 0 C2.475 0.495 2.475 0.495 5 1 C5 1.66 5 2.32 5 3 C8.3 3.66 11.6 4.32 15 5 C15 5.66 15 6.32 15 7 C10.06729471 8.6442351 7.45975807 7.18615592 3 5 C3 4.01 3 3.02 3 2 C2.01 2 1.02 2 0 2 C0 1.34 0 0.68 0 0 Z " fill="#A50D10" transform="translate(94,366)"/>
<path d="M0 0 C0.99 0.33 1.98 0.66 3 1 C2.67 4.3 2.34 7.6 2 11 C1.67 10.34 1.34 9.68 1 9 C0.34 9 -0.32 9 -1 9 C-1.33 10.32 -1.66 11.64 -2 13 C-2.66 12.67 -3.32 12.34 -4 12 C-3.690625 11.484375 -3.38125 10.96875 -3.0625 10.4375 C-1.7129419 7.34145494 -1.44037297 4.33425247 -1 1 C-0.67 0.67 -0.34 0.34 0 0 Z " fill="#971313" transform="translate(424,325)"/>
<path d="M0 0 C1.11858398 0.00580078 1.11858398 0.00580078 2.25976562 0.01171875 C3.37254883 0.00591797 3.37254883 0.00591797 4.5078125 0 C10.06899561 0.01008374 10.06899561 0.01008374 12.32226562 1.13671875 C12.32226562 1.79671875 12.32226562 2.45671875 12.32226562 3.13671875 C9.53034358 3.19052453 6.73945153 3.23029544 3.94726562 3.26171875 C3.15320313 3.27847656 2.35914063 3.29523438 1.54101562 3.3125 C-0.53265453 3.33007348 -2.60656679 3.24007043 -4.67773438 3.13671875 C-5.33773438 2.47671875 -5.99773437 1.81671875 -6.67773438 1.13671875 C-4.86585595 -0.67515967 -2.40795928 0.00437413 0 0 Z " fill="#B10D0C" transform="translate(306.677734375,158.86328125)"/>
<path d="M0 0 C1.22589844 0.29197266 1.22589844 0.29197266 2.4765625 0.58984375 C3.41628906 0.82380859 3.41628906 0.82380859 4.375 1.0625 C4.375 1.3925 4.375 1.7225 4.375 2.0625 C2.065 2.0625 -0.245 2.0625 -2.625 2.0625 C-2.955 2.7225 -3.285 3.3825 -3.625 4.0625 C-2.305 4.3925 -0.985 4.7225 0.375 5.0625 C-0.615 5.5575 -0.615 5.5575 -1.625 6.0625 C-3.7890625 5.28515625 -3.7890625 5.28515625 -6.25 4.125 C-7.06726563 3.74472656 -7.88453125 3.36445313 -8.7265625 2.97265625 C-9.35304688 2.67230469 -9.97953125 2.37195313 -10.625 2.0625 C-4.375 -1.0625 -4.375 -1.0625 0 0 Z " fill="#9D1618" transform="translate(297.625,282.9375)"/>
<path d="M0 0 C0.66 1.32 1.32 2.64 2 4 C3.65 3.67 5.3 3.34 7 3 C6.8125 4.875 6.8125 4.875 6 7 C3.4375 8.25 3.4375 8.25 1 9 C0.34 8.34 -0.32 7.68 -1 7 C-0.625 3.375 -0.625 3.375 0 0 Z " fill="#A21819" transform="translate(71,333)"/>
<path d="M0 0 C0.99 0.33 1.98 0.66 3 1 C4.99961564 1.03920815 7.00049364 1.04443347 9 1 C9.66 2.32 10.32 3.64 11 5 C10.34 5.66 9.68 6.32 9 7 C8.01 6.67 7.02 6.34 6 6 C5.67 5.34 5.34 4.68 5 4 C1.97065509 3.34227572 1.97065509 3.34227572 -1 3 C-0.67 2.01 -0.34 1.02 0 0 Z " fill="#95191B" transform="translate(203,324)"/>
<path d="M0 0 C1.84765625 0.33984375 1.84765625 0.33984375 4.0625 0.9375 C5.16271484 1.22947266 5.16271484 1.22947266 6.28515625 1.52734375 C7.13400391 1.76130859 7.13400391 1.76130859 8 2 C5.61419704 4.88807727 3.70939253 5.61954948 0 6 C-0.66 5.67 -1.32 5.34 -2 5 C-1.125 1.125 -1.125 1.125 0 0 Z " fill="#B00E0E" transform="translate(286,279)"/>
<path d="M0 0 C0.721875 0.12375 1.44375 0.2475 2.1875 0.375 C-0.8125 2.375 -0.8125 2.375 -2.8125 2.375 C-2.8125 4.025 -2.8125 5.675 -2.8125 7.375 C-3.8025 7.375 -4.7925 7.375 -5.8125 7.375 C-7.51782323 9.31509522 -7.51782323 9.31509522 -8.8125 11.375 C-9.8025 11.045 -10.7925 10.715 -11.8125 10.375 C-11.4825 9.385 -11.1525 8.395 -10.8125 7.375 C-9.8225 7.045 -8.8325 6.715 -7.8125 6.375 C-7.02875 5.364375 -6.245 4.35375 -5.4375 3.3125 C-2.8125 0.375 -2.8125 0.375 0 0 Z " fill="#981B1D" transform="translate(181.8125,324.625)"/>
<path d="M0 0 C0.33 0 0.66 0 1 0 C1.12117188 0.94101563 1.24234375 1.88203125 1.3671875 2.8515625 C1.53476562 4.09679687 1.70234375 5.34203125 1.875 6.625 C2.03742188 7.85476562 2.19984375 9.08453125 2.3671875 10.3515625 C2.95483689 13.73961517 3.81988122 16.77698651 5 20 C4.01 19.67 3.02 19.34 2 19 C2 18.01 2 17.02 2 16 C1.01 15.67 0.02 15.34 -1 15 C-0.67 10.05 -0.34 5.1 0 0 Z " fill="#9D1713" transform="translate(289,175)"/>
<path d="M0 0 C0.33 0.99 0.66 1.98 1 3 C3.00016466 4.20882096 3.00016466 4.20882096 5 5 C5 6.98 5 8.96 5 11 C4.01 11 3.02 11 2 11 C-0.32590854 7.36576791 -0.16265833 4.22911669 0 0 Z " fill="#AA100F" transform="translate(42,314)"/>
<path d="M0 0 C1.10844919 3.32534757 0.84454356 5.62182575 0 9 C-3.3 8.67 -6.6 8.34 -10 8 C-9.67 8.99 -9.34 9.98 -9 11 C-9.99 10.67 -10.98 10.34 -12 10 C-11.67 9.01 -11.34 8.02 -11 7 C-9.00390625 6.4453125 -9.00390625 6.4453125 -6.5625 6.125 C-4.1371605 5.73228612 -4.1371605 5.73228612 -2 5 C-0.32386813 2.52985528 -0.32386813 2.52985528 0 0 Z " fill="#9B1616" transform="translate(128,274)"/>
<path d="M0 0 C2.64 0 5.28 0 8 0 C7.67 1.65 7.34 3.3 7 5 C6.34 5 5.68 5 5 5 C4.67 5.66 4.34 6.32 4 7 C3.34 6.67 2.68 6.34 2 6 C2 5.01 2 4.02 2 3 C1.34 2.67 0.68 2.34 0 2 C0 1.34 0 0.68 0 0 Z " fill="#AE0C0B" transform="translate(202,327)"/>
<path d="M0 0 C1.32 0.33 2.64 0.66 4 1 C4 3.31 4 5.62 4 8 C3.566875 7.525625 3.13375 7.05125 2.6875 6.5625 C0.97690387 4.76313043 0.97690387 4.76313043 -2 4 C-2.33 4.99 -2.66 5.98 -3 7 C-4 4 -4 4 -3 1 C-2.01 1 -1.02 1 0 1 C0 0.67 0 0.34 0 0 Z " fill="#A60C0D" transform="translate(149,331)"/>
<path d="M0 0 C0 1.32 0 2.64 0 4 C-2.95664519 5.4783226 -5.74229737 5.06032783 -9 5 C-8.34 4.67 -7.68 4.34 -7 4 C-7 3.01 -7 2.02 -7 1 C-4 0 -4 0 0 0 Z " fill="#A40F0E" transform="translate(396,274)"/>
<path d="M0 0 C0 0.66 0 1.32 0 2 C-0.95712891 2.07347656 -0.95712891 2.07347656 -1.93359375 2.1484375 C-2.75988281 2.22320312 -3.58617187 2.29796875 -4.4375 2.375 C-5.26121094 2.44460937 -6.08492187 2.51421875 -6.93359375 2.5859375 C-7.61550781 2.72257813 -8.29742187 2.85921875 -9 3 C-9.33 3.66 -9.66 4.32 -10 5 C-10 4.34 -10 3.68 -10 3 C-10.66 2.67 -11.32 2.34 -12 2 C-11.34 2 -10.68 2 -10 2 C-10 1.34 -10 0.68 -10 0 C-3.375 -1.125 -3.375 -1.125 0 0 Z " fill="#B00804" transform="translate(136,164)"/>
<path d="M0 0 C3.63 0.66 7.26 1.32 11 2 C11.33 2.99 11.66 3.98 12 5 C10.56344146 5.08131463 9.1255517 5.13933559 7.6875 5.1875 C6.48673828 5.23970703 6.48673828 5.23970703 5.26171875 5.29296875 C3 5 3 5 1.20703125 3.61328125 C0 2 0 2 0 0 Z " fill="#9B1418" transform="translate(235,279)"/>
<path d="M0 0 C0 3.19398323 -0.51014449 4.26859824 -2 7 C-2.37125 7.7425 -2.7425 8.485 -3.125 9.25 C-3.41375 9.8275 -3.7025 10.405 -4 11 C-4.66 10.34 -5.32 9.68 -6 9 C-6.99 9.66 -7.98 10.32 -9 11 C-7.59155282 7.78475695 -5.89655214 5.67816132 -3.375 3.25 C-2.74335937 2.63640625 -2.11171875 2.0228125 -1.4609375 1.390625 C-0.73777344 0.70226562 -0.73777344 0.70226562 0 0 Z " fill="#9C1B1B" transform="translate(64,190)"/>
<path d="M0 0 C1.134375 0.4125 2.26875 0.825 3.4375 1.25 C3.7675 2.24 4.0975 3.23 4.4375 4.25 C3.1175 5.24 1.7975 6.23 0.4375 7.25 C0.1075 5.6 -0.2225 3.95 -0.5625 2.25 C-1.5525 1.92 -2.5425 1.59 -3.5625 1.25 C-3.8925 2.24 -4.2225 3.23 -4.5625 4.25 C-5.2225 3.92 -5.8825 3.59 -6.5625 3.25 C-6.2325 2.26 -5.9025 1.27 -5.5625 0.25 C-3.5625 -0.75 -3.5625 -0.75 0 0 Z " fill="#93120F" transform="translate(61.5625,325.75)"/>
<path d="M0 0 C1.32 0 2.64 0 4 0 C3.43628586 3.26954202 2.50037734 4.82575883 0 7 C-0.99 6.01 -1.98 5.02 -3 4 C-1.75 2 -1.75 2 0 0 Z " fill="#A6120E" transform="translate(249,308)"/>
<path d="M0 0 C0.99 0.33 1.98 0.66 3 1 C2.67 2.32 2.34 3.64 2 5 C-0.97 5 -3.94 5 -7 5 C-2.25 1.125 -2.25 1.125 0 0 Z " fill="#9E1410" transform="translate(287,161)"/>
<path d="M0 0 C0.66 0.33 1.32 0.66 2 1 C1.67 3.64 1.34 6.28 1 9 C-0.32 8.34 -1.64 7.68 -3 7 C-2.25 2.25 -2.25 2.25 0 0 Z " fill="#991C1B" transform="translate(342,325)"/>
<path d="M0 0 C0 0.66 0 1.32 0 2 C1.65 2 3.3 2 5 2 C5 2.33 5 2.66 5 3 C-1.6 3 -8.2 3 -15 3 C-15 2.67 -15 2.34 -15 2 C-12.87528825 1.6648342 -10.75022095 1.33192171 -8.625 1 C-7.44164062 0.814375 -6.25828125 0.62875 -5.0390625 0.4375 C-2 0 -2 0 0 0 Z " fill="#8F1508" transform="translate(137,282)"/>
<path d="M0 0 C0.33 0 0.66 0 1 0 C2.0070238 5.03511899 1.97387813 8.23947038 0 13 C-0.99 12.01 -1.98 11.02 -3 10 C-2.01 6.7 -1.02 3.4 0 0 Z " fill="#991819" transform="translate(207,187)"/>
<path d="M0 0 C0.99 0.33 1.98 0.66 3 1 C3.33 3.31 3.66 5.62 4 8 C3.01 8 2.02 8 1 8 C0.01 5.69 -0.98 3.38 -2 1 C-1.34 0.67 -0.68 0.34 0 0 Z " fill="#AE1011" transform="translate(285,331)"/>
<path d="M0 0 C5.40489519 1.52012677 8.98492628 5.27385218 13 9 C12.67 9.66 12.34 10.32 12 11 C11.44570313 10.57847656 10.89140625 10.15695313 10.3203125 9.72265625 C9.59585937 9.17480469 8.87140625 8.62695312 8.125 8.0625 C7.40570313 7.51722656 6.68640625 6.97195312 5.9453125 6.41015625 C4.05642921 4.96035376 4.05642921 4.96035376 2 4 C2 3.34 2 2.68 2 2 C1.34 2 0.68 2 0 2 C0 1.34 0 0.68 0 0 Z " fill="#8E1315" transform="translate(329,223)"/>
<path d="M0 0 C0.5775 0.515625 1.155 1.03125 1.75 1.5625 C1.09 1.5625 0.43 1.5625 -0.25 1.5625 C0.08 2.5525 0.41 3.5425 0.75 4.5625 C-2.22 3.5725 -5.19 2.5825 -8.25 1.5625 C-5.38572533 -1.30177467 -3.5713656 -2.2817058 0 0 Z " fill="#97100D" transform="translate(394.25,181.4375)"/>
<path d="M0 0 C0.33 0.66 0.66 1.32 1 2 C2.98 2 4.96 2 7 2 C7 2.33 7 2.66 7 3 C4.69 3 2.38 3 0 3 C0 3.66 0 4.32 0 5 C-1.98 5 -3.96 5 -6 5 C-3.375 1.125 -3.375 1.125 0 0 Z " fill="#B81315" transform="translate(126,161)"/>
<path d="M0 0 C0.99 0.66 1.98 1.32 3 2 C2.25 6.75 2.25 6.75 0 9 C-1.125 7.3125 -1.125 7.3125 -2 5 C-1.125 2.25 -1.125 2.25 0 0 Z " fill="#9A1419" transform="translate(184,249)"/>
<path d="M0 0 C0.66 0 1.32 0 2 0 C1.609375 6.0546875 1.609375 6.0546875 1 8 C-0.98 8.99 -0.98 8.99 -3 10 C-2.01 6.7 -1.02 3.4 0 0 Z " fill="#A71114" transform="translate(419,244)"/>
<path d="M0 0 C0.125 2.375 0.125 2.375 0 5 C-0.66 5.66 -1.32 6.32 -2 7 C-3.32 7 -4.64 7 -6 7 C-5.60799596 4.15797072 -5.2043974 3.17884772 -3 1.25 C-1 0 -1 0 0 0 Z " fill="#A61110" transform="translate(59,198)"/>
<path d="M0 0 C0 0.66 0 1.32 0 2 C-3.37097383 3.49821059 -5.20442119 4 -9 4 C-9 3.01 -9 2.02 -9 1 C-5.57367167 -0.61798838 -3.61944899 -1.34053666 0 0 Z " fill="#AA0F0F" transform="translate(107,167)"/>
<path d="M0 0 C0 1.65 0 3.3 0 5 C-4 5 -4 5 -6 4 C-6 3.01 -6 2.02 -6 1 C-1.125 0 -1.125 0 0 0 Z " fill="#B10D0D" transform="translate(320,331)"/>
<path d="M0 0 C0.33 0.66 0.66 1.32 1 2 C1.99 2.33 2.98 2.66 4 3 C0.125 4 0.125 4 -1 4 C-1.33 5.98 -1.66 7.96 -2 10 C-2.66 10 -3.32 10 -4 10 C-4.25 6.6875 -4.25 6.6875 -4 3 C-2 1.0625 -2 1.0625 0 0 Z " fill="#B40E12" transform="translate(177,330)"/>
<path d="M0 0 C0.99 1.32 1.98 2.64 3 4 C1.68 5.65 0.36 7.3 -1 9 C-1.33 7.68 -1.66 6.36 -2 5 C-2 5.66 -2 6.32 -2 7 C-2.66 6.67 -3.32 6.34 -4 6 C-2.68 4.02 -1.36 2.04 0 0 Z " fill="#9D1517" transform="translate(284,259)"/>
<path d="M0 0 C0.625 1.875 0.625 1.875 1 4 C0.34 4.66 -0.32 5.32 -1 6 C-2.32 6 -3.64 6 -5 6 C-5 5.01 -5 4.02 -5 3 C-4.34 3 -3.68 3 -3 3 C-3 2.34 -3 1.68 -3 1 C-2.01 0.67 -1.02 0.34 0 0 Z " fill="#B30B09" transform="translate(72,326)"/>
<path d="M0 0 C0.33 0 0.66 0 1 0 C1.98248524 4.0527516 2.08159574 7.83861737 2 12 C1.01 11.67 0.02 11.34 -1 11 C-0.67 7.37 -0.34 3.74 0 0 Z " fill="#A50D0C" transform="translate(130,220)"/>
<path d="M0 0 C0.66 0.99 1.32 1.98 2 3 C4.05925139 3.72382467 4.05925139 3.72382467 6 4 C5.67 4.99 5.34 5.98 5 7 C3.68 7 2.36 7 1 7 C-1 4 -1 4 -0.625 1.8125 C-0.41875 1.214375 -0.2125 0.61625 0 0 Z " fill="#B10A0C" transform="translate(204,335)"/>
<path d="M0 0 C0.66 0.33 1.32 0.66 2 1 C1.25 2.9375 1.25 2.9375 0 5 C-2.125 5.75 -2.125 5.75 -4 6 C-4 5.34 -4 4.68 -4 4 C-4.66 3.67 -5.32 3.34 -6 3 C-4.03533587 1.93224776 -2.03144641 0.93446535 0 0 Z " fill="#931A19" transform="translate(126,335)"/>
<path d="M0 0 C0.66 0.33 1.32 0.66 2 1 C0.02 1.99 0.02 1.99 -2 3 C-2 3.66 -2 4.32 -2 5 C-1.01 5.33 -0.02 5.66 1 6 C-0.65 6.66 -2.3 7.32 -4 8 C-4 7.01 -4 6.02 -4 5 C-4.66 4.67 -5.32 4.34 -6 4 C-4.02 2.68 -2.04 1.36 0 0 Z " fill="#8F1518" transform="translate(400,269)"/>
<path d="M0 0 C0.99 0.33 1.98 0.66 3 1 C3.33 2.98 3.66 4.96 4 7 C3.01 7.33 2.02 7.66 1 8 C1 7.34 1 6.68 1 6 C0.34 5.67 -0.32 5.34 -1 5 C-0.67 3.35 -0.34 1.7 0 0 Z " fill="#B40C0B" transform="translate(32,245)"/>
<path d="M0 0 C1.32 1.32 2.64 2.64 4 4 C3.34 5.65 2.68 7.3 2 9 C1.34 8.01 0.68 7.02 0 6 C-0.99 6.495 -0.99 6.495 -2 7 C-1.34 4.69 -0.68 2.38 0 0 Z " fill="#96140F" transform="translate(38,227)"/>
<path d="M0 0 C0.99 0 1.98 0 3 0 C2.67 2.64 2.34 5.28 2 8 C1.01 7.67 0.02 7.34 -1 7 C-0.67 4.69 -0.34 2.38 0 0 Z " fill="#A90E10" transform="translate(194,222)"/>
<path d="M0 0 C0.66 0 1.32 0 2 0 C2 2.31 2 4.62 2 7 C1.01 7 0.02 7 -1 7 C-1.33 5.35 -1.66 3.7 -2 2 C-1.34 2 -0.68 2 0 2 C0 1.34 0 0.68 0 0 Z " fill="#AA0E0D" transform="translate(94,333)"/>
<path d="M0 0 C0.33 1.32 0.66 2.64 1 4 C-0.98 4.99 -0.98 4.99 -3 6 C-3.66 5.01 -4.32 4.02 -5 3 C-3.35 2.01 -1.7 1.02 0 0 Z " fill="#A71C1B" transform="translate(241,335)"/>
<path d="M0 0 C1.2065625 0.0309375 1.2065625 0.0309375 2.4375 0.0625 C2.4375 1.7125 2.4375 3.3625 2.4375 5.0625 C1.1175 4.7325 -0.2025 4.4025 -1.5625 4.0625 C-1.5625 3.4025 -1.5625 2.7425 -1.5625 2.0625 C-2.2225 1.7325 -2.8825 1.4025 -3.5625 1.0625 C-2.5625 0.0625 -2.5625 0.0625 0 0 Z " fill="#AF100B" transform="translate(365.5625,326.9375)"/>
<path d="M0 0 C3.63 0.33 7.26 0.66 11 1 C11 1.33 11 1.66 11 2 C7.7 2.33 4.4 2.66 1 3 C0.67 2.01 0.34 1.02 0 0 Z " fill="#A30D0D" transform="translate(118,282)"/>
<path d="M0 0 C0.66 0.33 1.32 0.66 2 1 C1.01 4.3 0.02 7.6 -1 11 C-1.33 11 -1.66 11 -2 11 C-2.28571429 3.57142857 -2.28571429 3.57142857 0 0 Z " fill="#910E0E" transform="translate(351,264)"/>
<path d="M0 0 C2.97 1.65 5.94 3.3 9 5 C5 6 5 6 3 5 C2.67 5.66 2.34 6.32 2 7 C1.34 4.69 0.68 2.38 0 0 Z " fill="#940A0C" transform="translate(307,207)"/>
<path d="M0 0 C2.5654594 2.5654594 2.54046087 4.47686668 3 8 C2.01 8 1.02 8 0 8 C-0.79953138 4.71303767 -1.09658936 3.28976808 0 0 Z " fill="#AD0F14" transform="translate(37,302)"/>
<path d="M0 0 C0.99 0.33 1.98 0.66 3 1 C2.67 2.32 2.34 3.64 2 5 C0.35 5 -1.3 5 -3 5 C-2.01 3.35 -1.02 1.7 0 0 Z " fill="#B30A11" transform="translate(191,233)"/>
<path d="M0 0 C0.33 0.99 0.66 1.98 1 3 C1.66 3 2.32 3 3 3 C2.67 4.65 2.34 6.3 2 8 C1.01 8 0.02 8 -1 8 C-2 6 -2 6 -1.0625 2.875 C-0.5365625 1.451875 -0.5365625 1.451875 0 0 Z " fill="#9B181B" transform="translate(199,208)"/>
<path d="M0 0 C1.98 0.495 1.98 0.495 4 1 C4 2.32 4 3.64 4 5 C2.0625 4.625 2.0625 4.625 0 4 C-0.33 3.34 -0.66 2.68 -1 2 C-0.67 1.34 -0.34 0.68 0 0 Z " fill="#AC1313" transform="translate(409,195)"/>
<path d="M0 0 C0.66 0.33 1.32 0.66 2 1 C1.67 1.66 1.34 2.32 1 3 C1.66 3.33 2.32 3.66 3 4 C1.35 4.66 -0.3 5.32 -2 6 C-2.33 4.35 -2.66 2.7 -3 1 C-2.01 0.67 -1.02 0.34 0 0 Z " fill="#9D1414" transform="translate(348,180)"/>
<path d="M0 0 C0 0.66 0 1.32 0 2 C0.99 2.33 1.98 2.66 3 3 C-0.38018531 4.04005702 -3.4780279 4.08004482 -7 4 C-3.17391304 0 -3.17391304 0 0 0 Z " fill="#9A1710" transform="translate(86,175)"/>
<path d="M0 0 C1.32 0 2.64 0 4 0 C3.67 1.65 3.34 3.3 3 5 C2.01 5 1.02 5 0 5 C0 3.35 0 1.7 0 0 Z " fill="#98171A" transform="translate(389,337)"/>
<path d="M0 0 C1.32 0.33 2.64 0.66 4 1 C4 2.65 4 4.3 4 6 C2.68 5.67 1.36 5.34 0 5 C0 3.35 0 1.7 0 0 Z " fill="#A51719" transform="translate(150,336)"/>
<path d="M0 0 C5.66153846 1.47692308 5.66153846 1.47692308 7.375 4.125 C7.684375 5.053125 7.684375 5.053125 8 6 C4.08597051 4.73058503 2.20927127 3.48832306 0 0 Z " fill="#9D1517" transform="translate(288,218)"/>
<path d="M0 0 C0.33 0 0.66 0 1 0 C1.1875 2.875 1.1875 2.875 1 6 C0.01 6.66 -0.98 7.32 -2 8 C-2.125 5.125 -2.125 5.125 -2 2 C-1.34 1.34 -0.68 0.68 0 0 Z " fill="#A70E0F" transform="translate(205,196)"/>
<path d="M0 0 C0.99 0.33 1.98 0.66 3 1 C3.33 2.98 3.66 4.96 4 7 C3.01 7.495 3.01 7.495 2 8 C0.74335022 5.09399739 0 3.20395416 0 0 Z " fill="#951510" transform="translate(167,272)"/>
</svg>
