<?xml version="1.0" standalone="no"?>
<!DOCTYPE svg PUBLIC "-//W3C//DTD SVG 20010904//EN"
 "http://www.w3.org/TR/2001/REC-SVG-20010904/DTD/svg10.dtd">
<svg version="1.0" xmlns="http://www.w3.org/2000/svg"
 width="500.000000pt" height="500.000000pt" viewBox="0 0 500.000000 500.000000"
 preserveAspectRatio="xMidYMid meet">

<g transform="translate(0.000000,500.000000) scale(0.100000,-0.100000)"
fill="#000000" stroke="none">
<path d="M0 2500 l0 -2500 2500 0 2500 0 0 2500 0 2500 -2500 0 -2500 0 0
-2500z m3189 805 c22 -24 41 -52 41 -61 0 -22 -92 -114 -114 -114 -24 0 -116
89 -116 112 0 10 19 39 41 63 33 36 48 45 74 45 26 0 41 -9 74 -45z m-891
-433 c30 -12 92 -66 222 -196 99 -99 180 -186 180 -193 0 -22 -81 -92 -120
-104 -50 -15 -81 3 -175 105 -38 42 -82 80 -99 86 -75 26 -169 2 -224 -58 -17
-18 -26 -22 -34 -14 -8 8 -17 8 -30 1 -23 -12 -24 3 -2 25 14 15 14 16 0 16
-9 0 -16 7 -16 15 0 7 -8 18 -17 24 -12 6 -17 20 -15 41 2 19 -1 29 -8 25 -5
-3 -10 -16 -10 -28 0 -18 -2 -19 -10 -7 -5 8 -10 20 -10 26 0 6 38 51 85 100
47 49 85 91 85 94 0 8 58 41 88 50 40 12 63 11 110 -8z m935 -70 c78 -83 78
-100 -10 -186 -38 -36 -76 -69 -85 -72 -23 -7 -54 11 -91 52 -54 63 -106 77
-172 50 -72 -30 -67 -66 21 -148 118 -108 228 -226 241 -255 21 -50 0 -84
-116 -195 -139 -133 -161 -136 -252 -43 -88 92 -91 94 -134 115 -52 25 -108
25 -164 0 -49 -23 -61 -24 -61 -9 0 6 7 9 15 5 8 -3 15 -1 15 3 0 5 -6 11 -14
14 -7 3 -28 28 -46 55 -17 27 -42 54 -56 60 -13 6 -32 29 -44 51 -13 27 -25
39 -35 35 -9 -4 -22 7 -36 30 -11 20 -32 39 -45 42 -13 3 -21 10 -18 15 3 5
10 7 15 4 5 -4 9 -1 9 6 0 26 33 49 69 49 38 0 44 -5 146 -110 61 -63 114 -92
169 -92 59 0 90 15 153 74 59 56 83 94 83 129 0 24 -52 77 -148 152 -84 66
-83 81 8 175 87 90 104 92 169 23 25 -27 56 -54 68 -60 53 -27 109 -5 165 64
58 70 87 65 181 -33z m1335 -115 c43 -34 54 -122 22 -174 -23 -39 -31 -40 -66
-10 -24 21 -25 24 -10 36 14 12 16 12 10 -3 -3 -9 -2 -16 3 -16 18 0 33 25 32
55 0 26 -2 27 -9 10 -7 -17 -9 -14 -9 13 -1 51 -32 39 -51 -20 -28 -88 -70
-109 -137 -68 -34 20 -48 62 -40 116 3 24 4 23 6 -11 l2 -40 14 49 c7 28 11
56 8 63 -8 19 10 16 35 -7 17 -17 20 -25 12 -40 -12 -23 -13 -80 -1 -80 5 0
16 17 24 38 11 25 16 31 16 16 1 -11 -6 -29 -14 -40 -18 -24 -19 -37 -2 -32 6
3 21 31 32 64 12 36 28 63 41 69 11 6 19 16 16 23 -5 15 44 7 66 -11z m-4040
-12 c25 -53 16 -72 -40 -93 -75 -28 -108 -44 -108 -52 0 -6 21 -14 118 -42 35
-10 52 -33 52 -71 0 -22 -5 -25 -67 -30 -95 -9 -205 -8 -221 2 -8 4 -12 19
-10 32 3 21 9 24 56 27 28 2 52 7 52 11 0 5 -24 17 -52 27 -78 28 -73 43 27
84 48 19 89 38 91 42 8 12 -10 10 -49 -7 -43 -18 -50 -19 -42 -5 4 6 -9 10
-32 10 -44 0 -63 14 -63 47 0 18 6 23 24 23 13 0 26 -5 28 -11 2 -7 31 -8 98
-1 l95 9 -90 4 -90 3 90 6 c50 3 97 7 106 8 9 1 21 -9 27 -23z m3918 -21 c-4
-9 -9 -15 -11 -12 -3 3 -3 13 1 22 4 9 9 15 11 12 3 -3 3 -13 -1 -22z m-4141
-77 c-23 -16 -55 -28 -55 -22 0 6 53 34 65 35 5 0 1 -6 -10 -13z m4030 -157
c25 -10 27 -13 23 -67 -2 -49 0 -58 15 -61 12 -2 17 3 18 20 1 19 3 18 8 -7
l7 -30 8 38 c4 21 10 45 13 53 3 8 0 14 -5 14 -6 0 -13 -10 -15 -22 -4 -20 -4
-19 -6 5 -1 22 3 27 23 27 36 0 48 -22 41 -74 l-7 -46 31 0 c17 0 32 -5 32
-12 1 -7 7 16 14 52 7 36 11 67 9 69 -2 2 -7 -10 -10 -28 -4 -17 -9 -30 -11
-27 -3 2 -2 18 2 35 7 34 21 38 50 18 17 -13 17 -19 5 -96 -9 -56 -18 -85 -28
-89 -17 -6 -207 24 -254 40 -30 11 -36 23 -14 31 18 7 42 140 27 145 -10 3
-16 22 -7 22 3 0 17 -5 31 -10z m-2202 -42 c4 -10 8 -9 16 2 7 9 11 10 11 3 0
-6 -4 -14 -9 -17 -12 -8 -41 3 -41 15 0 13 18 11 23 -3z m2161 -57 c-4 -23 -9
-40 -11 -37 -3 3 -2 23 2 46 4 23 9 39 11 37 3 -2 2 -23 -2 -46z m-3751 -53
c67 -68 82 -154 37 -203 -53 -58 -150 -73 -211 -32 -39 26 -68 78 -68 122 0
25 2 27 8 10 8 -19 8 -19 16 5 14 46 60 83 130 101 25 7 23 8 -11 4 -50 -6
-92 -26 -117 -57 -18 -22 -18 -22 -8 -1 12 24 56 58 86 66 33 9 124 -1 138
-15z m3848 -175 c102 -32 121 -41 126 -61 10 -43 -9 -46 -109 -17 -153 44
-178 55 -178 79 0 18 2 19 11 6 9 -12 10 -11 6 8 -7 30 2 29 144 -15z m-1796
-43 c11 -5 16 -9 12 -9 -10 -1 23 -35 35 -37 4 -1 12 -2 17 -3 5 0 16 -12 24
-25 15 -22 14 -25 -14 -52 l-31 -29 7 30 c4 17 3 26 -2 20 -11 -13 -36 -18
-29 -6 9 15 -13 24 -28 12 -9 -8 -13 -7 -13 4 0 8 4 12 8 9 4 -2 10 0 14 6 3
5 1 10 -5 10 -6 0 -8 5 -4 11 5 9 -6 10 -41 5 -33 -5 -45 -4 -40 3 3 6 10 9
15 6 10 -6 8 15 -3 32 -12 19 43 28 78 13z m-1906 -150 c37 -83 38 -108 10
-139 -18 -19 -28 -22 -59 -17 -34 5 -41 2 -82 -39 -25 -25 -49 -45 -54 -45
-17 0 -31 15 -38 40 -4 14 -4 20 1 13 6 -8 21 -1 51 27 56 52 59 87 3 38 l-26
-23 24 28 c35 39 17 52 -43 30 -46 -17 -48 -17 -62 1 -18 25 -18 36 1 36 23 0
225 91 225 102 0 5 -10 6 -22 3 -18 -5 -20 -4 -8 4 32 23 47 11 79 -59z m3571
3 c0 -13 -6 -23 -14 -23 -19 0 -46 -39 -46 -67 0 -28 53 -66 95 -67 22 -1 31
-5 28 -13 -8 -19 22 -16 39 5 25 29 27 47 6 72 l-20 24 -18 -24 c-16 -21 -21
-23 -44 -12 -27 12 -35 45 -14 58 8 5 9 2 5 -9 -14 -36 11 -24 28 14 16 34 17
42 5 49 -8 5 -12 11 -9 15 8 7 134 -52 149 -70 12 -15 -2 -55 -20 -55 -6 0
-10 -14 -10 -32 0 -18 -11 -45 -26 -65 -22 -29 -30 -33 -72 -33 -98 1 -192 75
-192 152 0 35 2 39 15 28 12 -10 15 -9 15 5 0 10 16 33 36 51 28 27 32 34 17
35 -16 0 -16 1 2 9 24 10 45 -12 45 -47z m-3680 37 c-8 -5 -19 -10 -25 -10 -5
0 -3 5 5 10 8 5 20 10 25 10 6 0 3 -5 -5 -10z m-45 -20 c-3 -5 -12 -10 -18
-10 -7 0 -6 4 3 10 19 12 23 12 15 0z m3626 -27 c-12 -20 -14 -14 -5 12 4 9 9
14 11 11 3 -2 0 -13 -6 -23z m-3676 7 c-3 -5 -12 -10 -18 -10 -7 0 -6 4 3 10
19 12 23 12 15 0z m-40 -20 c-3 -5 -12 -10 -18 -10 -7 0 -6 4 3 10 19 12 23
12 15 0z m255 -225 c-14 -8 -29 -14 -35 -14 -5 0 1 6 15 14 14 8 30 14 35 14
6 0 -1 -6 -15 -14z m99 1 c61 -34 113 -177 64 -176 -30 1 -53 26 -53 58 0 33
-22 62 -46 62 -37 0 -114 -62 -114 -91 0 -28 11 -49 26 -49 8 0 14 -4 14 -10
0 -14 37 -13 46 2 5 8 2 9 -10 5 -13 -5 -17 -3 -13 7 3 7 -1 24 -10 35 -8 12
-12 25 -8 29 4 4 10 1 12 -6 3 -6 9 -10 13 -7 5 3 7 12 3 20 -3 8 -1 15 4 15
12 0 83 -112 77 -122 -3 -4 -29 -24 -59 -43 -45 -30 -57 -34 -74 -25 -12 6
-24 22 -27 36 -4 14 -19 38 -35 54 -28 28 -40 80 -19 80 6 0 10 6 10 13 1 31
97 107 136 107 16 0 17 2 4 10 -24 15 30 12 59 -4z m3372 -47 c91 -56 108
-152 40 -220 -32 -33 -45 -39 -79 -39 -83 0 -174 82 -176 159 -1 40 20 91 37
91 6 0 3 -8 -5 -17 -9 -10 -19 -34 -23 -53 l-7 -35 22 40 c27 49 37 60 73 78
16 8 24 17 20 20 -5 3 -22 -1 -38 -9 -15 -8 -30 -13 -32 -11 -2 3 11 12 29 21
41 20 76 13 139 -25z m-3589 -61 c-7 -7 -12 -8 -12 -2 0 14 12 26 19 19 2 -3
-1 -11 -7 -17z m449 -175 c45 -38 44 -47 -21 -171 -34 -64 -66 -121 -71 -126
-11 -12 -59 31 -59 53 0 14 2 14 10 1 9 -13 11 -13 20 0 14 21 12 33 -4 27 -9
-4 -12 0 -9 11 2 10 -6 28 -18 40 -17 19 -28 22 -58 17 -31 -5 -40 -2 -59 19
-12 15 -21 26 -19 27 1 1 18 2 37 4 37 3 237 91 228 101 -3 3 -23 -2 -43 -10
-52 -22 -59 -19 -10 5 49 23 50 23 76 2z m-146 -43 c-3 -5 -12 -10 -18 -10 -7
0 -6 4 3 10 19 12 23 12 15 0z m2974 -70 c41 -39 81 -70 89 -70 8 0 12 -6 8
-15 -9 -25 8 -17 42 18 22 22 30 39 26 50 -9 24 9 21 34 -6 l21 -22 -59 -63
c-49 -51 -63 -61 -78 -53 -9 6 -59 50 -111 99 -89 83 -93 89 -80 110 8 12 18
22 24 22 5 -1 43 -32 84 -70z m-3059 30 c-24 -15 -37 -11 -16 5 11 8 22 12 25
9 3 -3 -1 -9 -9 -14z m3210 -53 c0 -2 -10 -12 -22 -23 l-23 -19 19 23 c18 21
26 27 26 19z m-2769 -70 c4 -46 -1 -176 -7 -192 -7 -18 -6 -19 9 -6 10 7 34
36 54 63 27 37 33 52 23 58 -9 6 -9 9 0 15 14 9 50 -23 50 -45 0 -14 -118
-182 -150 -214 -6 -6 -21 1 -40 19 -17 16 -26 31 -21 34 11 7 2 141 -10 141
-4 0 -20 -18 -36 -40 -31 -44 -60 -51 -87 -21 -15 16 -15 19 -1 31 13 11 14
10 9 -5 -5 -12 -4 -16 4 -11 13 8 152 192 152 202 0 3 -7 3 -16 0 -14 -5 -15
-4 -4 9 11 13 16 12 41 -6 16 -11 29 -26 30 -32z m2466 -7 c49 -29 93 -105 93
-160 0 -105 -117 -157 -207 -91 -56 40 -83 88 -82 142 1 37 2 40 9 19 5 -16 8
-19 9 -8 1 24 66 86 99 95 l27 7 -25 7 c-22 6 -21 7 10 8 19 0 50 -8 67 -19z
m-2573 -15 c-9 -14 -18 -25 -21 -25 -5 0 5 18 20 38 17 22 18 13 1 -13z m346
-135 c11 -11 20 -33 20 -49 0 -40 10 -62 24 -54 6 4 5 -1 -3 -10 -25 -31 -4
-29 45 3 45 29 41 34 -11 15 -11 -4 -7 2 10 12 24 16 35 17 57 9 38 -14 42
-33 10 -53 -15 -10 -29 -20 -32 -23 -3 -3 -25 -18 -50 -32 -32 -18 -52 -40
-68 -72 -25 -50 -29 -52 -67 -34 -28 13 -33 28 -9 28 28 0 44 63 42 167 l-2
98 -6 -95 -5 -95 -5 103 c-5 92 -3 102 13 102 9 0 26 -9 37 -20z m1972 -117
c35 -70 64 -130 66 -133 1 -4 -8 -12 -21 -19 -21 -11 -32 -7 -110 40 -48 28
-90 49 -93 46 -3 -3 11 -38 31 -78 35 -68 36 -74 20 -85 -30 -22 -48 -1 -110
123 -32 65 -60 121 -62 125 -2 4 7 12 19 19 19 9 21 9 11 -2 -30 -31 -4 -40
26 -10 18 18 20 18 80 -20 92 -58 97 -55 50 34 -29 56 -30 59 -12 73 10 7 23
14 30 14 7 0 40 -57 75 -127z m-364 -45 c20 -42 73 -241 68 -255 -7 -16 -42
-17 -53 -1 -4 7 -15 31 -23 53 -14 36 -19 40 -45 37 -17 -2 -40 -10 -52 -18
-21 -13 -21 -15 -6 -59 17 -51 12 -75 -15 -75 -26 0 -41 20 -57 77 -7 26 -23
81 -35 121 -20 69 -20 105 0 72 8 -12 10 -12 16 3 10 28 22 20 35 -23 12 -40
16 -43 54 -41 18 1 18 0 -2 -9 -34 -14 -28 -23 10 -15 43 10 89 34 64 35 -10
0 -16 4 -12 9 3 6 1 29 -4 53 -7 31 -7 45 2 50 22 14 44 8 55 -14z m-1003 -55
c89 -18 105 -27 105 -54 0 -16 -8 -19 -45 -19 -25 0 -45 -2 -45 -5 0 -16 -32
-200 -36 -206 -4 -7 -62 5 -72 16 -3 3 2 11 10 18 9 6 21 41 27 77 6 36 14 74
17 85 4 17 -3 24 -40 39 -36 15 -46 24 -46 43 0 28 15 29 125 6z m667 -41 c21
-19 29 -34 25 -45 -7 -19 -42 -23 -52 -7 -10 16 -67 12 -87 -7 -13 -11 -18
-30 -18 -68 0 -56 12 -75 47 -75 13 0 23 -4 23 -10 0 -14 33 -13 48 2 7 7 12
19 12 28 -1 11 -6 9 -20 -9 -23 -26 -25 -23 -9 13 7 16 19 24 33 24 50 -3 60
-40 23 -84 -34 -40 -118 -46 -167 -12 -19 13 -41 37 -49 53 -19 40 -27 130
-12 140 8 5 10 -2 6 -22 -5 -25 -4 -24 10 7 22 49 42 68 79 76 27 6 29 8 11
15 -15 6 -9 8 22 8 33 1 50 -5 75 -27z m-300 -6 c4 -6 8 -19 8 -28 0 -15 -9
-18 -59 -18 -63 0 -76 -8 -66 -39 5 -16 12 -18 46 -14 43 6 59 -4 59 -39 0
-15 -9 -18 -54 -18 -47 0 -54 -3 -60 -22 -8 -32 6 -41 66 -42 50 -1 53 -3 56
-28 l3 -28 -90 0 c-61 0 -92 4 -98 13 -9 14 -15 266 -6 280 8 12 186 -3 195
-17z m-425 -58 c-3 -7 -5 -2 -5 12 0 14 2 19 5 13 2 -7 2 -19 0 -25z m-20
-115 c-3 -10 -5 -2 -5 17 0 19 2 27 5 18 2 -10 2 -26 0 -35z"/>
<path d="M2050 2525 c0 -9 6 -12 15 -9 8 4 15 10 15 15 0 5 -7 9 -15 9 -8 0
-15 -7 -15 -15z"/>
<path d="M250 2659 c0 -5 5 -7 10 -4 6 3 10 8 10 11 0 2 -4 4 -10 4 -5 0 -10
-5 -10 -11z"/>
<path d="M317 2433 c18 -2 50 -2 70 0 21 2 7 4 -32 4 -38 0 -55 -2 -38 -4z"/>
<path d="M412 2194 c-61 -31 -55 -90 11 -117 40 -16 47 -16 80 -2 34 14 57 40
57 65 0 6 -10 1 -22 -12 -13 -13 -17 -16 -9 -6 10 13 12 26 5 50 -9 29 -14 33
-49 36 -22 1 -55 -5 -73 -14z m65 -110 c-3 -3 -12 -4 -19 -1 -8 3 -5 6 6 6 11
1 17 -2 13 -5z"/>
<path d="M606 1867 c-23 -17 -17 -51 10 -55 23 -3 38 27 27 54 -6 17 -14 18
-37 1z"/>
<path d="M647 1817 c-18 -27 -13 -34 11 -18 8 5 12 17 10 27 -3 15 -6 14 -21
-9z"/>
<path d="M4045 1545 c-31 -30 -32 -55 -2 -82 34 -32 60 -42 92 -36 29 5 29 5
10 -11 -18 -14 -18 -15 -2 -16 25 0 57 36 57 65 0 14 -4 25 -10 25 -5 0 -10 6
-10 14 0 21 -58 66 -86 66 -14 0 -36 -11 -49 -25z m136 -92 c-12 -20 -14 -14
-5 12 4 9 9 14 11 11 3 -2 0 -13 -6 -23z"/>
<path d="M978 1288 c-3 -7 -15 -13 -29 -13 -30 0 -36 -26 -9 -43 18 -11 22 -9
40 20 11 18 20 36 20 41 0 12 -18 8 -22 -5z"/>
<path d="M3766 1311 c-4 -7 -5 -15 -2 -18 9 -9 19 4 14 18 -4 11 -6 11 -12 0z"/>
<path d="M1182 1065 c0 -16 2 -22 5 -12 2 9 2 23 0 30 -3 6 -5 -1 -5 -18z"/>
<path d="M1172 975 c0 -16 2 -22 5 -12 2 9 2 23 0 30 -3 6 -5 -1 -5 -18z"/>
<path d="M3605 1085 c-29 -28 -31 -45 -10 -86 20 -39 95 -75 124 -60 23 13 38
50 23 60 -5 3 -13 17 -17 31 -10 34 -55 80 -77 80 -11 0 -30 -11 -43 -25z"/>
<path d="M3355 999 c-10 -15 3 -25 16 -12 7 7 7 13 1 17 -6 3 -14 1 -17 -5z"/>
<path d="M3040 849 c0 -5 5 -7 10 -4 6 3 10 8 10 11 0 2 -4 4 -10 4 -5 0 -10
-5 -10 -11z"/>
<path d="M2264 677 c-3 -8 -4 -45 -2 -83 l3 -69 5 83 c5 82 4 94 -6 69z"/>
</g>
</svg>
